<ttFont>
          <CharString index="0">
            rmoveto
            436 -272 278 -386 -386 -274 -278 -436 -436 274 -274 386 386 272 274 436 vhcurveto
            -1118 1 rmoveto
            279 142 266 318 318 140 -266 -281 -279 -140 -262 -318 -317 -143 262 281 vhcurveto
            return
          </CharString>
          <CharString index="1">
            501 -10 rmoveto
            409 177 162 213 199 -145 92 -141 67 hvcurveto
            -263 125 rlineto
            -133 64 -58 44 98 vvcurveto
            80 70 91 283 139 123 -15 -13 58 vhcurveto
            191 vlineto
            8 -82 -95 6 -143 hhcurveto
            -378 -174 -160 -193 -229 186 -95 119 -55 hvcurveto
            256 -117 rlineto
            127 -58 52 -52 -83 vvcurveto
            -94 -93 -96 -293 -136 -114 14 19 -82 vhcurveto
            -194 vlineto
            -12 102 111 -7 118 hhcurveto
            return
          </CharString>
          <CharString index="2">
            rmoveto
            -107 callgsubr
            return
          </CharString>
          <CharString index="3">
            56 callsubr
            80 -48 callsubr
            -81 20 callsubr
            -291 -68 191 170 hvcurveto
            682 78 hlineto
            264 -139 197 -272 -221 -258 -175 -336 -362 184 -191 382 vhcurveto
            -100 910 rmoveto
            156 68 -123 -115 hvcurveto
            -477 hlineto
            123 93 115 160 vhcurveto
            return
          </CharString>
          <CharString index="4">
            637 -16 -104 callsubr
            return
          </CharString>
          <CharString index="5">
            208 hlineto
            -587 -74 callsubr
            rlineto
            -137 hlineto
            -587 -57 callgsubr
            rlineto
            204 hlineto
            140 350 rlineto
            618 hlineto
            -308 770 rmoveto
            244 -610 rlineto
            -489 hlineto
            return
          </CharString>
          <CharString index="6">
            rmoveto
            -324 -230 rlineto
            -192 vlineto
            324 214 324 -214 rlineto
            192 vlineto
            endchar
          </CharString>
          <CharString index="7">
            199 hintmask 11010100
            -106 callsubr
            hintmask 00101000
            return
          </CharString>
          <CharString index="8">
            1 callsubr
            -106 callgsubr
            hintmask 00101000
            return
          </CharString>
          <CharString index="9">
            865 -16 rmoveto
            144 129 14 16 60 hvcurveto
            666 -200 -513 vlineto
            -4 -42 -40 -1 -33 hhcurveto
            -372 -171 242 -66 callsubr
            132 84 -9 -13 52 hvcurveto
            192 vlineto
            8 -60 -90 5 -120 hhcurveto
            -390 -66 callgsubr
            -253 425 hvcurveto
            return
          </CharString>
          <CharString index="10">
            14 -96 -65 2 -67 hhcurveto
            -309 -154 -128 -158 -160 102 -65 161 -79 hvcurveto
            146 -67 rlineto
            85 -42 34 -31 -57 vvcurveto
            -50 -39 -63 -229 -74 -79 4 27 -111 vhcurveto
            -177 vlineto
            -15 104 87 -3 73 hhcurveto
            304 172 119 158 168 -104 56 -159 82 hvcurveto
            return
          </CharString>
          <CharString index="11">
            rmoveto
            -234 -84 callgsubr
            3 callsubr
            endchar
          </CharString>
          <CharString index="12">
            hintmask 11101010
            -103 callsubr
            return
          </CharString>
          <CharString index="13">
            -107 callgsubr
            endchar
          </CharString>
          <CharString index="14">
            1 callsubr
            -103 callgsubr
            hintmask 00101000
            return
          </CharString>
          <CharString index="15">
            324 230 rlineto
            192 vlineto
            -324 -214 -324 214 rlineto
            -192 vlineto
            endchar
          </CharString>
          <CharString index="16">
            53 -72 -59 55 -89 hhcurveto
            -130 -106 -108 -153 hvcurveto
            152 hlineto
            70 38 37 46 58 30 -36 -48 62 vhcurveto
            return
          </CharString>
          <CharString index="17">
            143 -74 callsubr
            -198 -883 hlineto
            11 -144 -100 144 -627 883 rlineto
            -144 -57 callgsubr
            198 853 hlineto
            -11 174 121 -174 rlineto
            return
          </CharString>
          <CharString index="18">
            hintmask 11101000
            -93 callgsubr
            return
          </CharString>
          <CharString index="19">
            200 -95 callsubr
            hintmask 00010100
            return
          </CharString>
          <CharString index="20">
            1068 hmoveto
            -90 callsubr
            return
          </CharString>
          <CharString index="21">
            hintmask 11010000
            -97 callgsubr
            hintmask 00101000
            return
          </CharString>
          <CharString index="22">
            208 hintmask 11010100
            -100 callgsubr
            hintmask 00101000
            return
          </CharString>
          <CharString index="23">
            -10 13 callsubr
            38 callsubr
            47 callgsubr
            -25 648 -82 -100 callsubr
            145 return
          </CharString>
          <CharString index="24">
            -32 callgsubr
            hintmask 11100101
            -44 callgsubr
            hintmask 11010101
            982 vlineto
            hintmask 11100101
            12 -83 -75 4 79 callgsubr
            -347 -169 -370 2 hvcurveto
            -404 2 255 -120 166 hhcurveto
            158 107 72 46 44 hvcurveto
            -53 vlineto
            -222 -57 -83 -220 3 vhcurveto
            30 391 rmoveto
            -107 -173 64 306 266 197 119 228 32 50 72 callgsubr
            -89 -85 -133 hhcurveto
            hintmask 00001010
            return
          </CharString>
          <CharString index="25">
            rmoveto
            hintmask 00010110
            -54 callsubr
            hintmask 00110110
            -91 callsubr
            hintmask 00010110
            -78 callsubr
          </CharString>
          <CharString index="26">
            -71 callgsubr
            -138 367 -71 callgsubr
            endchar
          </CharString>
          <CharString index="27">
            356 -74 callsubr
            rmoveto
            -55 callsubr
            return
          </CharString>
          <CharString index="28">
            1493 40 callgsubr
            -252 -817 -271 817 28 callsubr
            -268 -820 -265 820 rlineto
            -213 hlineto
            375 -1032 rlineto
            206 hlineto
            263 782 278 -782 rlineto
            206 hlineto
            347 1032 rlineto
            return
          </CharString>
          <CharString index="29">
            -44 56 69 -52 85 hhcurveto
            130 106 108 153 hvcurveto
            endchar
          </CharString>
          <CharString index="30">
            21 -69 callgsubr
            return
          </CharString>
          <CharString index="31">
            rmoveto
            3 callsubr
            -232 367 rlineto
            57 callgsubr
            endchar
          </CharString>
          <CharString index="32">
            rmoveto
            -149 122 -119 154 153 124 119 149 149 -124 120 -153 -154 -122 -120 -149 vhcurveto
            return
          </CharString>
          <CharString index="33">
            1392 return
          </CharString>
          <CharString index="34">
            8 -83 -75 8 -134 -56 callsubr
            -109 29 callgsubr
            return
          </CharString>
          <CharString index="35">
            -13 callsubr
            28 callgsubr
            116 236 -9 callsubr
            -614 -12 callgsubr
            return
          </CharString>
          <CharString index="36">
            210 -126 130 -184 -187 -128 -130 -210 -216 128 -123 187 return
          </CharString>
          <CharString index="37">
            1782 -105 callgsubr
          </CharString>
          <CharString index="38">
            hintmask 11010000
            -80 callgsubr
            hintmask 00101000
            return
          </CharString>
          <CharString index="39">
            rmoveto
            234 50 135 247 hvcurveto
            167 -172 -169 vlineto
            -149 -21 -74 -91 vhcurveto
            return
          </CharString>
          <CharString index="40">
            rmoveto
            -85 callgsubr
            return
          </CharString>
          <CharString index="41">
            306 310 176 199 366 return
          </CharString>
          <CharString index="42">
            208 hintmask 11001000
            -83 callgsubr
            hintmask 00110000
            return
          </CharString>
          <CharString index="43">
            152 vstem
            136 567 rmoveto
            -439 357 -355 441 441 358 355 439 439 -358 356 -441 -441 -357 -356 -439 vhcurveto
            152 hmoveto
            359 289 292 357 357 290 -292 -359 -359 -290 -291 -357 -357 -289 291 359 vhcurveto
            return
          </CharString>
          <CharString index="44">
            154 200 return
          </CharString>
          <CharString index="45">
            348 vlineto
            436 312 213 481 481 -322 216 -436 hvcurveto
            return
          </CharString>
          <CharString index="46">
            0 -60 callgsubr
            return
          </CharString>
          <CharString index="47">
            -57 callgsubr
            200 return
          </CharString>
          <CharString index="48">
            1975 -101 callsubr
          </CharString>
          <CharString index="49">
            407 159 -207 -330 -326 -148 -207 -407 hvcurveto
            -136 return
          </CharString>
          <CharString index="50">
            -788 154 rmoveto
            -84 -105 46 138 146 150 40 210 hvcurveto
            133 -83 hlineto
            -209 -169 -78 -135 vhcurveto
            726 756 rmoveto
            142 62 -103 -135 hvcurveto
            -455 hlineto
            123 109 115 142 vhcurveto
            -345 -22 rmoveto
            -1 -1 -1 0 vhcurveto
            1 0 1 1 vhcurveto
            return
          </CharString>
          <CharString index="51">
            hhcurveto
            -295 -313 -159 -394 -401 256 return
          </CharString>
          <CharString index="52">
            -58 callgsubr
            hlineto
            return
          </CharString>
          <CharString index="53">
            -70 -38 -37 -46 -56 -42 41 31 -42 vhcurveto
            return
          </CharString>
          <CharString index="54">
            237 -16 172 1236 -20 return
          </CharString>
          <CharString index="55">
            741 1019 rmoveto
            -52 callgsubr
            -160 -67 callgsubr
            return
          </CharString>
          <CharString index="56">
            -3 25 25 -3 22 hhcurveto
            282 61 205 191 hvcurveto
            return
          </CharString>
          <CharString index="57">
            rmoveto
            hintmask 00011010
            -54 callsubr
            hintmask 00111010
            -91 callsubr
            hintmask 00011010
            -78 callsubr
          </CharString>
          <CharString index="58">
            -61 callsubr
            161 44 callsubr
            -64 648 -89 callsubr
            hintmask 00010100
            -439 return
          </CharString>
          <CharString index="59">
            14 12 51 hvcurveto
            169 vlineto
            -14 -52 return
          </CharString>
          <CharString index="60">
            rmoveto
            -92 655 154 -354 8 vlineto
            87 77 rlineto
            147 130 81 101 105 vvcurveto
            113 -65 171 -327 -55 -102 -8 -11 -46 vhcurveto
            -158 vlineto
            13 31 109 20 63 hhcurveto
            162 50 -67 -73 -93 -41 -77 -236 -187 hvcurveto
            return
          </CharString>
          <CharString index="61">
            rmoveto
            -105 -98 19 19 -61 hvcurveto
            -156 vlineto
            -16 67 122 -10 75 hhcurveto
            296 123 122 143 142 -103 83 -205 15 hvcurveto
            3 vlineto
            273 262 rlineto
            80 -640 -145 370 vlineto
            -239 -240 rlineto
            -80 82 vlineto
            return
          </CharString>
          <CharString index="62">
            0 callgsubr
            -5 callsubr
            return
          </CharString>
          <CharString index="63">
            168 410 174 return
          </CharString>
          <CharString index="64">
            354 1032 -35 callgsubr
            return
          </CharString>
          <CharString index="65">
            1051 hmoveto
            564 -15 callsubr
            567 -200 -1488 200 775 vlineto
            -27 callsubr
            -564 vlineto
            return
          </CharString>
          <CharString index="66">
            31 callgsubr
            -11 -25 -36 -8 -45 hhcurveto
            return
          </CharString>
          <CharString index="67">
            -21 -22 callsubr
            882 -20 return
          </CharString>
          <CharString index="68">
            200 -74 callsubr
            -200 -550 -658 550 -58 callgsubr
            666 658 hlineto
            return
          </CharString>
          <CharString index="69">
            1132 980 rmoveto
            59 80 rlineto
            -1060 200 -74 callsubr
            -128 vlineto
            -494 -570 -496 570 rlineto
            -128 -60 callsubr
            1059 hlineto
            61 -80 363 -422 rlineto
            return
          </CharString>
          <CharString index="70">
            1215 rmoveto
            513 -511 hlineto
            -381 -131 -147 -251 -28 -99 4 8 -28 vhcurveto
            return
          </CharString>
          <CharString index="71">
            rmoveto
            -264 -85 -141 -247 hvcurveto
            -122 193 122 vlineto
            149 35 79 121 vhcurveto
            return
          </CharString>
          <CharString index="72">
            vvcurveto
            -110 65 -130 211 return
          </CharString>
          <CharString index="73">
            35 callgsubr
            -120 133 -240 -99 -127 -41 -87 -111 vhcurveto
            return
          </CharString>
          <CharString index="74">
            rmoveto
            -57 callgsubr
            796 176 -596 15 callgsubr
            vlineto
            endchar
          </CharString>
          <CharString index="75">
            353 -74 callsubr
            rmoveto
            -199 -57 callgsubr
            199 694 hlineto
            582 -694 rlineto
            248 hlineto
            -615 722 571 670 rlineto
            -250 hlineto
            -536 -652 rlineto
            return
          </CharString>
          <CharString index="76">
            -77 -42 -40 -52 -62 -43 28 43 -82 vhcurveto
            hintmask 01011100
            58 -111 -71 45 -102 hhcurveto
            -152 -94 -120 -171 hvcurveto
            152 hlineto
            77 42 40 52 66 42 -28 -46 84 vhcurveto
            return
          </CharString>
          <CharString index="77">
            rmoveto
            251 173 rlineto
            -624 171 859 -104 vlineto
            -318 -228 rlineto
            endchar
          </CharString>
          <CharString index="78">
            -238 -1350 rmoveto
            -100 -157 67 290 28 callgsubr
            117 236 32 52 72 callgsubr
            -83 -86 -129 hhcurveto
            endchar
          </CharString>
          <CharString index="79">
            rmoveto
            196 vlineto
            -611 -402 rlineto
            -118 vlineto
            611 -411 rlineto
            196 vlineto
            return
          </CharString>
          <CharString index="80">
            55 63 85 46 116 hhcurveto
            144 88 39 callsubr
            return
          </CharString>
          <CharString index="81">
            -53 callsubr
            158 return
          </CharString>
          <CharString index="82">
            -616 -77 callsubr
            return
          </CharString>
          <CharString index="83">
            hstemhm
            -7 callgsubr
            return
          </CharString>
          <CharString index="84">
            766 176 -566 464 396 168 -396 410 566 hlineto
            return
          </CharString>
          <CharString index="85">
            350 160 return
          </CharString>
          <CharString index="86">
            -36 callgsubr
            917 -200 -1487 200 526 vlineto
            return
          </CharString>
          <CharString index="87">
            -61 callgsubr
            158 return
          </CharString>
          <CharString index="88">
            -26 callsubr
            45 callsubr
            return
          </CharString>
          <CharString index="89">
            154 26 49 callgsubr
            return
          </CharString>
          <CharString index="90">
            126 40 callgsubr
            -160 563 vlineto
            -600 -756 rlineto
            -116 878 160 -631 vlineto
            609 756 rlineto
            116 vlineto
            return
          </CharString>
          <CharString index="91">
            -154 vlineto
            -51 callsubr
            return
          </CharString>
          <CharString index="92">
            vlineto
            9 callsubr
            -126 -41 -86 -110 vhcurveto
            return
          </CharString>
          <CharString index="93">
            -55 -63 -91 -42 -108 hhcurveto
            -144 -70 54 258 hvcurveto
            564 vlineto
            return
          </CharString>
          <CharString index="94">
            20 rmoveto
            -100 -157 66 290 return
          </CharString>
          <CharString index="95">
            200 -95 237 -455 return
          </CharString>
          <CharString index="96">
            787 1360 rlineto
            -167 hlineto
            -787 -1360 rlineto
            endchar
          </CharString>
          <CharString index="97">
            133 vlineto
            11 callgsubr
            hintmask 10101110
            158 vlineto
            hintmask 10110110
            37 callgsubr
            -358 return
          </CharString>
          <CharString index="98">
            32 50 -4 -4 20 hvcurveto
            return
          </CharString>
          <CharString index="99">
            -1032 200 return
          </CharString>
          <CharString index="100">
            -510 133 return
          </CharString>
          <CharString index="101">
            816 731 rmoveto
            98 58 89 97 134 vvcurveto
            172 -89 200 -393 vhcurveto
            -351 -57 callgsubr
            390 hlineto
            return
          </CharString>
          <CharString index="102">
            367 hstemhm
            return
          </CharString>
          <CharString index="103">
            -619 -31 callgsubr
            return
          </CharString>
          <CharString index="104">
            -117 22 rlineto
            -207 -28 callgsubr
            return
          </CharString>
          <CharString index="105">
            -48 -256 -148 -59 rlineto
            -94 148 return
          </CharString>
          <CharString index="106">
            164 736 164 -16 -20 return
          </CharString>
          <CharString index="107">
            184 126 123 216 return
          </CharString>
          <CharString index="108">
            200 hintmask 11010100
            return
          </CharString>
          <CharString index="109">
            hstemhm
            27 1311 return
          </CharString>
          <CharString index="110">
            178 hlineto
            return
          </CharString>
          <CharString index="111">
            -41 callgsubr
            186 -193 -186 vlineto
            -149 -35 -74 -121 vhcurveto
            endchar
          </CharString>
          <CharString index="112">
            rmoveto
            -744 -300 rlineto
            -183 vlineto
            1003 432 rlineto
            103 vlineto
            -1003 432 rlineto
            -183 vlineto
            return
          </CharString>
          <CharString index="113">
            18 -109 rlineto
            180 1032 -200 -779 hlineto
            return
          </CharString>
          <CharString index="114">
            -14 112 rlineto
            -185 -8 callsubr
            775 hlineto
            return
          </CharString>
          <CharString index="115">
            109 200 return
          </CharString>
          <CharString index="116">
            351 -119 133 -242 -99 return
          </CharString>
          <CharString index="117">
            1 128 -108 -21 552 128 0 128 423 128 hstemhm
            116 160 return
          </CharString>
          <CharString index="118">
            -41 callsubr
            -93 -38 51 return
          </CharString>
          <CharString index="119">
            -416 2 callgsubr
            return
          </CharString>
          <CharString index="120">
            180 1055 177 return
          </CharString>
          <CharString index="121">
            422 hstemhm
            return
          </CharString>
          <CharString index="122">
            1530 return
          </CharString>
          <CharString index="123">
            100 -419 rmoveto
            -200 -1051 hlineto
            -43 callgsubr
            return
          </CharString>
          <CharString index="124">
            -19 callgsubr
            45 callsubr
            return
          </CharString>
          <CharString index="125">
            300 -24 rlineto
            168 vlineto
            -300 -24 rlineto
            return
          </CharString>
          <CharString index="126">
            rmoveto
            -154 1003 22 callsubr
            return
          </CharString>
          <CharString index="127">
            -17 -133 hhcurveto
            return
          </CharString>
          <CharString index="128">
            -15 154 -118 -21 return
          </CharString>
          <CharString index="129">
            154 vlineto
            return
          </CharString>
          <CharString index="130">
            50 callgsubr
            1042 174 return
          </CharString>
          <CharString index="131">
            200 vstem
            return
          </CharString>
          <CharString index="132">
            77 -56 41 -76 vhcurveto
            98 -418 -35 callgsubr
            return
          </CharString>
          <CharString index="133">
            -290 -282 -154 -120 33 callsubr
            return
          </CharString>
          <CharString index="134">
            -510 151 return
          </CharString>
          <CharString index="135">
            rlineto
            -208 hlineto
            return
          </CharString>
          <CharString index="136">
            -58 104 74 -42 101 hhcurveto
            152 30 94 108 153 vvcurveto
            return
          </CharString>
          <CharString index="137">
            50 callgsubr
            174 160 130 -44 callsubr
            return
          </CharString>
          <CharString index="138">
            -107 1222 422 hstem
            186 648 vstem
            510 return
          </CharString>
          <CharString index="139">
            9 -35 -37 1 -40 hhcurveto
            -156 -130 -106 -53 -44 hvcurveto
            return
          </CharString>
          <CharString index="140">
            -236 -32 -52 4 4 -20 hvcurveto
            return
          </CharString>
          <CharString index="141">
            849 hmoveto
            180 1032 hlineto
            return
          </CharString>
          <CharString index="142">
            124 -879 200 return
          </CharString>
          <CharString index="143">
            -170 15 callsubr
            hstem
            return
          </CharString>
          <CharString index="144">
            166 56 callgsubr
            return
          </CharString>
          <CharString index="145">
            151 14 callsubr
            return
          </CharString>
          <CharString index="146">
            -74 -238 hvcurveto
            return
          </CharString>
          <CharString index="147">
            hhcurveto
            295 313 162 394 401 -256 return
          </CharString>
          <CharString index="148">
            -444 -172 138 1458 138 hstem
            return
          </CharString>
          <CharString index="149">
            8 -119 rlineto
            179 1488 -199 hlineto
            return
          </CharString>
          <CharString index="150">
            39 callsubr
            -564 vlineto
            return
          </CharString>
          <CharString index="151">
            422 -54 callgsubr
            return
          </CharString>
          <CharString index="152">
            367 -54 callgsubr
            return
          </CharString>
          <CharString index="153">
            153 198 return
          </CharString>
          <CharString index="154">
            117 280 return
          </CharString>
          <CharString index="155">
            -188 -174 return
          </CharString>
          <CharString index="156">
            vhcurveto
            -160 return
          </CharString>
          <CharString index="157">
            160 hstemhm
            242 193 222 193 return
          </CharString>
          <CharString index="158">
            663 865 rmoveto
            60 47 -4 -12 41 hvcurveto
            return
          </CharString>
          <CharString index="159">
            hstemhm
            159 208 return
          </CharString>
          <CharString index="160">
            -275 -6 152 return
          </CharString>
          <CharString index="161">
            hlineto
            -64 -340 rlineto
            return
          </CharString>
          <CharString index="162">
            -446 15 callsubr
            return
          </CharString>
          <CharString index="163">
            rmoveto
            136 return
          </CharString>
          <CharString index="164">
            rmoveto
            -191 return
          </CharString>
          <CharString index="165">
            50 -50 176 hstem
            495 24 callsubr
            return
          </CharString>
          <CharString index="166">
            -104 -16 -1 callsubr
            return
          </CharString>
          <CharString index="167">
            144 241 120 200 145 return
          </CharString>
          <CharString index="168">
            -274 21 -21 hstem
            351 152 vstem
            return
          </CharString>
          <CharString index="169">
            356 40 callgsubr
            -200 -1053 hlineto
            return
          </CharString>
          <CharString index="170">
            vlineto
            47 25 83 85 129 hhcurveto
            endchar
          </CharString>
          <CharString index="171">
            160 305 160 return
          </CharString>
          <CharString index="172">
            128 297 128 return
          </CharString>
          <CharString index="173">
            21 79 callsubr
            return
          </CharString>
          <CharString index="174">
            208 599 208 return
          </CharString>
          <CharString index="175">
            208 hintmask 00000000
            return
          </CharString>
          <CharString index="176">
            rlineto
            192 hlineto
            return
          </CharString>
          <CharString index="177">
            hstem
            170 return
          </CharString>
          <CharString index="178">
            195 endchar
          </CharString>
          <CharString index="179">
            39 callgsubr
            1070 161 return
          </CharString>
          <CharString index="180">
            71 208 return
          </CharString>
          <CharString index="181">
            -103 0 160 712 160 return
          </CharString>
          <CharString index="182">
            -445 -170 1700 hstem
            return
          </CharString>
          <CharString index="183">
            170 hintmask 01110000
            return
          </CharString>
          <CharString index="184">
            144 88 164 return
          </CharString>
          <CharString index="185">
            hstemhm
            118 208 return
          </CharString>
          <CharString index="186">
            -21 879 153 return
          </CharString>
          <CharString index="187">
            86 0 117 return
          </CharString>
          <CharString index="188">
            -115 -92 return
          </CharString>
        <CharString name=".notdef">
          -446 endchar
        </CharString>
        <CharString name=".null">
          16 callgsubr
        </CharString>
        <CharString name="A">
          -61 callgsubr
          hstem
          27 1311 vstem
          -101 callgsubr
          endchar
        </CharString>
        <CharString name="AE">
          744 30 callsubr
          hstem
          989 24 callsubr
          1755 -74 callsubr
          rmoveto
          -832 hlineto
          -903 -57 callgsubr
          rlineto
          224 hlineto
          224 350 rlineto
          521 -350 -23 callsubr
          -1185 -708 rmoveto
          419 655 rlineto
          -655 vlineto
          endchar
        </CharString>
        <CharString name="AEacute">
          741 30 callsubr
          138 -5 callsubr
          989 200 -133 466 hintmask 11110100
          1755 -74 callsubr
          rmoveto
          -832 hlineto
          -903 -57 callgsubr
          rlineto
          224 hlineto
          224 350 rlineto
          521 -350 -23 callsubr
          -1185 -708 rmoveto
          419 655 rlineto
          -655 vlineto
          hintmask 00001010
          533 1387 -96 callsubr
        </CharString>
        <CharString name="Aacute">
          -20 callsubr
          367 2 callsubr
          -792 466 -89 callgsubr
          hintmask 00010100
          576 1387 -96 callsubr
        </CharString>
        <CharString name="Abreve">
          -20 callsubr
          144 2 callsubr
          -993 -8 callgsubr
          -89 callgsubr
          hintmask 00010110
          -91 1347 -98 callgsubr
        </CharString>
        <CharString name="Acircumflex">
          -61 callgsubr
          181 422 2 callsubr
          -983 648 -89 callgsubr
          hintmask 00010100
          243 1465 -101 callsubr
        </CharString>
        <CharString name="Adieresis">
          -61 callgsubr
          2 callsubr
          vstemhm
          -101 callgsubr
          466 1272 -105 callgsubr
        </CharString>
        <CharString name="Agrave">
          -20 callsubr
          367 2 callsubr
          -988 466 -89 callgsubr
          hintmask 00010100
          202 1020 -76 callsubr
        </CharString>
        <CharString name="Amacron">
          -20 callsubr
          152 2 callsubr
          -929 542 -89 callgsubr
          hintmask 00010100
          515 1172 -37 callgsubr
        </CharString>
        <CharString name="Aogonek">
          237 -510 151 380 -40 callsubr
          2 callsubr
          -418 169 hintmask 11000100
          1326 -38 callgsubr
          77 63 53 callgsubr
          -39 34 -125 22 rlineto
          -207 -109 -47 -51 callgsubr
          hintmask 01111000
          -196 488 rmoveto
          -102 callsubr
          endchar
        </CharString>
        <CharString name="Aring">
          -61 callgsubr
          131 66 callgsubr
          2 callsubr
          -934 65 callsubr
          hintmask 11100100
          -101 callgsubr
          hintmask 00011011
          -32 1261 -79 callgsubr
        </CharString>
        <CharString name="Atilde">
          -61 callgsubr
          157 -18 callsubr
          27 1311 -1073 13 callgsubr
          hintmask 11100100
          -101 callgsubr
          hintmask 00000000
          509 1280 rmoveto
          hintmask 00001011
          -54 callsubr
          hintmask 00011011
          -91 callsubr
          hintmask 00001011
          -78 callsubr
        </CharString>
        <CharString name="B">
          52 callgsubr
          -24 callsubr
          425 208 -120 68 callsubr
          hintmask 11111000
          -6 callsubr
          hintmask 11110100
          -2 callgsubr
          hintmask 11111000
          -16 callgsubr
          hintmask 11110100
          -190 481 hlineto
          endchar
        </CharString>
        <CharString name="C">
          -10 14 callgsubr
          hstem
          81 callgsubr
          vstem
          -99 callgsubr
          endchar
        </CharString>
        <CharString name="CR">
          -446 endchar
        </CharString>
        <CharString name="Cacute">
          -10 14 callgsubr
          128 -5 callsubr
          81 callgsubr
          307 466 -92 callgsubr
          248 1907 -96 callsubr
        </CharString>
        <CharString name="Ccaron">
          -72 callgsubr
          1563 -91 callgsubr
        </CharString>
        <CharString name="Ccedilla">
          33 callgsubr
          81 14 callgsubr
          hstemhm
          81 callgsubr
          332 77 callsubr
          hintmask 00111000
          -99 callgsubr
          hintmask 11000110
          -193 -209 -74 callgsubr
        </CharString>
        <CharString name="Ccircumflex">
          -72 callgsubr
          1985 -101 callsubr
        </CharString>
        <CharString name="Cdotaccent">
          -10 14 callgsubr
          156 56 callgsubr
          81 callgsubr
          318 247 -92 callgsubr
          -86 1792 rmoveto
          -94 callsubr
        </CharString>
        <CharString name="D">
          72 callsubr
          20 callgsubr
          691 205 vstem
          -86 callgsubr
          endchar
        </CharString>
        <CharString name="Dcaron">
          72 callsubr
          162 44 callsubr
          -40 648 83 -50 callgsubr
          284 323 -91 callgsubr
        </CharString>
        <CharString name="Dcroat">
          39 callgsubr
          520 144 406 161 20 callgsubr
          691 205 vstem
          154 1391 rmoveto
          -567 -125 -144 125 -680 -62 callsubr
          217 -567 rmoveto
          -355 406 125 hlineto
          -58 callsubr
          520 355 hlineto
          endchar
        </CharString>
        <CharString name="Delta">
          409 0 162 1230 -20 hstem
          196 1144 vstem
          1340 hmoveto
          100 vlineto
          -512 1292 rlineto
          -120 hlineto
          -512 -1292 rlineto
          -100 vlineto
          544 1019 rmoveto
          28 89 28 -89 335 -857 rlineto
          -727 hlineto
          endchar
        </CharString>
        <CharString name="E">
          -61 callsubr
          20 callgsubr
          vstem
          -93 callgsubr
          endchar
        </CharString>
        <CharString name="Eacute">
          17 callsubr
          127 466 -89 callsubr
          hintmask 00010100
          -106 679 -96 callsubr
        </CharString>
        <CharString name="Ebreve">
          -19 callgsubr
          144 -54 callgsubr
          -74 -8 callgsubr
          -89 callsubr
          hintmask 00010110
          -773 639 -98 callgsubr
        </CharString>
        <CharString name="Ecaron">
          -49 callsubr
          335 -91 callgsubr
        </CharString>
        <CharString name="Ecircumflex">
          -49 callsubr
          757 -101 callsubr
        </CharString>
        <CharString name="Edieresis">
          -61 callsubr
          -54 callgsubr
          vstemhm
          -93 callgsubr
          -197 564 -105 callgsubr
        </CharString>
        <CharString name="Edotaccent">
          -61 callsubr
          166 224 -54 callgsubr
          138 247 -89 callsubr
          hintmask 00010100
          -440 564 rmoveto
          -94 callsubr
        </CharString>
        <CharString name="Egrave">
          17 callsubr
          -69 466 -89 callsubr
          hintmask 00010100
          -480 312 -76 callsubr
        </CharString>
        <CharString name="Emacron">
          -19 callgsubr
          152 -54 callgsubr
          -10 542 -89 callsubr
          hintmask 00010100
          -167 464 -37 callgsubr
        </CharString>
        <CharString name="Eng">
          237 12 callsubr
          431 -69 callgsubr
          hstemhm
          46 callsubr
          660 200 -198 198 hintmask 00000000
          hintmask 10000100
          1211 171 rmoveto
          -200 -190 hlineto
          -43 callgsubr
          hintmask 01000100
          -154 vlineto
          hintmask 10000100
          -51 callsubr
          hintmask 00111010
          -143 20 rmoveto
          -90 callsubr
          endchar
        </CharString>
        <CharString name="Eogonek">
          27 callsubr
          359 176 -155 73 callgsubr
          -54 callgsubr
          280 169 hintmask 10100010
          1040 -38 callgsubr
          77 64 53 callgsubr
          -40 34 -3 callsubr
          hintmask 01011100
          13 1880 rmoveto
          -899 -57 callgsubr
          899 176 -699 464 529 168 -529 410 699 hlineto
          endchar
        </CharString>
        <CharString name="Eth">
          39 callgsubr
          506 154 410 161 hstemhm
          29 680 -555 200 691 205 hintmask 10101100
          -86 callgsubr
          hintmask 01010000
          355 -410 63 callgsubr
        </CharString>
        <CharString name="Euro">
          -8 178 186 154 170 153 224 175 70 callsubr
          188 vstem
          65 833 rmoveto
          -65 -153 rlineto
          173 hlineto
          -2 -23 -1 -23 -23 vvcurveto
          -36 2 -33 4 -32 vhcurveto
          -111 hlineto
          -65 -154 rlineto
          214 hlineto
          -249 98 250 -115 306 hhcurveto
          92 116 6 16 66 hvcurveto
          195 vlineto
          -19 -42 -128 -20 -104 hhcurveto
          -221 -143 70 116 -77 hvcurveto
          357 hlineto
          66 154 rlineto
          -484 hlineto
          -6 32 -2 33 36 vvcurveto
          24 1 23 3 22 vhcurveto
          566 hlineto
          66 153 rlineto
          -589 hlineto
          143 70 149 81 218 hhcurveto
          139 79 -17 -13 42 hvcurveto
          190 vlineto
          9 -58 -77 6 -125 hhcurveto
          -289 -258 -132 -267 -91 hvcurveto
          endchar
        </CharString>
        <CharString name="F">
          21 73 callgsubr
          20 callgsubr
          vstem
          -3 callgsubr
          endchar
        </CharString>
        <CharString name="G">
          9 callgsubr
          hstem
          132 208 658 24 callsubr
          -98 callsubr
          endchar
        </CharString>
        <CharString name="Gbreve">
          9 callgsubr
          128 144 54 callgsubr
          61 -8 callgsubr
          -73 200 hintmask 11010010
          -98 callsubr
          hintmask 00101100
          -464 1873 -98 callgsubr
        </CharString>
        <CharString name="Gcircumflex">
          9 callgsubr
          151 422 54 callgsubr
          71 648 -61 -65 callgsubr
          -130 1991 -101 callsubr
        </CharString>
        <CharString name="Gcommaaccent">
          238 -7 callsubr
          361 178 1057 183 54 callgsubr
          409 170 79 200 hintmask 01110100
          -98 callsubr
          hintmask 10001000
          -235 -494 -95 callgsubr
        </CharString>
        <CharString name="Gdotaccent">
          9 callgsubr
          156 224 54 callgsubr
          273 247 138 -65 callgsubr
          -131 1798 rmoveto
          -94 callsubr
        </CharString>
        <CharString name="H">
          34 callgsubr
          550 -20 20 callgsubr
          658 24 callsubr
          1012 hmoveto
          -39 callsubr
          endchar
        </CharString>
        <CharString name="Hbar">
          34 callgsubr
          190 144 216 -20 hstemhm
          16 1344 -1206 200 658 200 hintmask 00101000
          1360 1176 rmoveto
          -1344 -144 1344 hlineto
          hintmask 11010110
          -348 -1032 rmoveto
          -39 callsubr
          endchar
        </CharString>
        <CharString name="Hcircumflex">
          34 callgsubr
          550 -20 181 44 callsubr
          86 648 -76 200 hintmask 11101010
          1012 hmoveto
          -39 callsubr
          hintmask 00010100
          -248 1309 -101 callsubr
        </CharString>
        <CharString name="I">
          -25 callsubr
          hstem
          156 24 callsubr
          -80 callsubr
          endchar
        </CharString>
        <CharString name="IJ">
          410 -10 186 -160 -21 26 -21 1215 177 0 -20 hstemhm
          156 200 822 200 hintmask 00101100
          -80 callsubr
          hintmask 00000000
          309 -37 callsubr
          hintmask 10010010
          -193 vlineto
          hintmask 01010010
          -27 callgsubr
          endchar
        </CharString>
        <CharString name="Iacute">
          -616 -45 callsubr
          122 466 -432 -62 callgsubr
          232 -11 callgsubr
        </CharString>
        <CharString name="Ibreve">
          61 callgsubr
          144 hstemhm
          -79 160 75 200 75 160 hintmask 11001000
          -80 callsubr
          hintmask 00110100
          -435 1857 -98 callgsubr
        </CharString>
        <CharString name="Icircumflex">
          -616 19 callgsubr
          -69 648 -423 -62 callgsubr
          -101 -59 callsubr
        </CharString>
        <CharString name="Idieresis">
          -25 callsubr
          hstemhm
          156 200 vstemhm
          -80 callsubr
          122 -70 callsubr
        </CharString>
        <CharString name="Idotaccent">
          -25 callsubr
          186 56 callgsubr
          133 247 -224 -62 callgsubr
          -102 1782 rmoveto
          -94 callsubr
        </CharString>
        <CharString name="Igrave">
          -616 -45 callsubr
          -74 466 -236 -62 callgsubr
          -142 -10 callgsubr
        </CharString>
        <CharString name="Imacron">
          61 callgsubr
          152 hstemhm
          -15 542 -371 -62 callgsubr
          171 1682 -37 callgsubr
        </CharString>
        <CharString name="Iogonek">
          -616 44 callgsubr
          -74 callsubr
          -20 hstemhm
          -61 169 48 200 hintmask 11010000
          345 11 callsubr
          66 77 62 53 callgsubr
          -38 34 -125 14 rlineto
          -199 -101 -55 -51 callgsubr
          hintmask 01101000
          11 1880 rmoveto
          -55 callsubr
          endchar
        </CharString>
        <CharString name="Itilde">
          -25 callsubr
          157 -18 callsubr
          -159 152 163 200 165 152 hintmask 11000100
          -80 callsubr
          hintmask 00000000
          165 1790 -50 callsubr
        </CharString>
        <CharString name="J">
          42 callgsubr
          hstemhm
          666 -32 callgsubr
          hintmask 10110000
          153 -37 callsubr
          hintmask 01110000
          -193 vlineto
          hintmask 10110000
          -27 callgsubr
          endchar
        </CharString>
        <CharString name="Jcircumflex">
          42 callgsubr
          38 callgsubr
          185 648 -167 -32 callgsubr
          hintmask 10100100
          153 -37 callsubr
          hintmask 01100100
          -193 vlineto
          hintmask 10100100
          -27 callgsubr
          hintmask 00011000
          356 583 -101 callsubr
        </CharString>
        <CharString name="K">
          -77 callsubr
          hstem
          154 199 vstem
          -32 callsubr
          endchar
        </CharString>
        <CharString name="Kcommaaccent">
          12 callgsubr
          -74 callsubr
          -20 hstemhm
          154 199 230 76 callsubr
          -32 callsubr
          hintmask 10001000
          111 -1250 -95 callgsubr
        </CharString>
        <CharString name="L">
          -102 50 callgsubr
          15 callgsubr
          -20 20 callgsubr
          vstem
          21 callgsubr
          endchar
        </CharString>
        <CharString name="Lacute">
          -102 50 callgsubr
          15 callgsubr
          -20 158 45 callsubr
          -22 466 hintmask 11010000
          21 callgsubr
          hintmask 00101000
          444 505 -96 callsubr
        </CharString>
        <CharString name="Lcaron">
          -102 50 callgsubr
          710 157 349 -20 -54 callgsubr
          268 -17 callgsubr
          -356 349 -33 callsubr
        </CharString>
        <CharString name="Lcommaaccent">
          -102 -7 callsubr
          377 176 15 callgsubr
          -20 -54 callgsubr
          113 76 callsubr
          21 callgsubr
          hintmask 10001000
          -6 -1902 -95 callgsubr
        </CharString>
        <CharString name="Ldot">
          -102 50 callgsubr
          474 224 518 -20 -54 callgsubr
          341 247 hintmask 01001000
          816 874 -105 callsubr
          hintmask 10110000
          -662 518 -33 callsubr
        </CharString>
        <CharString name="Lslash">
          -102 50 callgsubr
          856 -20 380 -20 hstemhm
          24 656 -526 200 hintmask 01010000
          680 40 callgsubr
          -656 -385 rlineto
          -168 vlineto
          656 384 rlineto
          hintmask 10101000
          -526 529 -33 callsubr
        </CharString>
        <CharString name="M">
          408 -77 callsubr
          hstem
          145 200 846 24 callsubr
          -38 callsubr
          endchar
        </CharString>
        <CharString name="N">
          237 -77 callsubr
          hstem
          46 callsubr
          662 198 vstem
          -87 callsubr
          endchar
        </CharString>
        <CharString name="Nacute">
          237 -45 callsubr
          46 callsubr
          213 466 -17 -39 callgsubr
          569 1044 -96 callsubr
        </CharString>
        <CharString name="Ncaron">
          237 19 callgsubr
          46 callsubr
          22 648 -8 -39 callgsubr
          236 700 -91 callgsubr
        </CharString>
        <CharString name="Ncommaaccent">
          237 12 callgsubr
          -74 callsubr
          -20 hstemhm
          46 callsubr
          262 170 230 198 hintmask 01110100
          -87 callsubr
          hintmask 10001000
          33 -1363 -95 callgsubr
        </CharString>
        <CharString name="Ntilde">
          237 -77 callsubr
          157 -18 callsubr
          46 callsubr
          -68 13 callgsubr
          -102 198 hintmask 11001001
          -87 callsubr
          hintmask 00000000
          502 937 -82 callsubr
        </CharString>
        <CharString name="O">
          -47 callgsubr
          hstem
          8 callsubr
          918 24 callsubr
          -106 callgsubr
          endchar
        </CharString>
        <CharString name="OE">
          574 0 168 -168 -60 callgsubr
          -169 169 3 callgsubr
          542 -32 callgsubr
          hintmask 01110110
          1617 -74 callsubr
          rmoveto
          -766 hlineto
          -426 -316 -262 -436 -436 316 -258 426 hvcurveto
          -23 callsubr
          hintmask 10101110
          -766 -1050 rmoveto
          -373 -169 246 281 279 144 249 398 hvcurveto
          endchar
        </CharString>
        <CharString name="Oacute">
          -18 callgsubr
          325 466 127 -99 callsubr
          791 1202 -96 callsubr
        </CharString>
        <CharString name="Obreve">
          -26 callgsubr
          144 3 callgsubr
          124 -8 callgsubr
          124 200 hintmask 11010010
          -106 callgsubr
          hintmask 00101100
          124 1162 -98 callgsubr
        </CharString>
        <CharString name="Ocircumflex">
          -47 callgsubr
          145 422 3 callgsubr
          134 648 136 -99 callsubr
          458 1280 -101 callsubr
        </CharString>
        <CharString name="Odieresis">
          -47 callgsubr
          3 callgsubr
          918 200 vstemhm
          -106 callgsubr
          681 1087 -105 callgsubr
        </CharString>
        <CharString name="Ograve">
          -18 callgsubr
          129 466 323 -99 callsubr
          417 835 -76 callsubr
        </CharString>
        <CharString name="Ohungarumlaut">
          -18 callgsubr
          143 884 -109 -99 callsubr
          1027 1202 -81 callsubr
        </CharString>
        <CharString name="Omacron">
          -26 callgsubr
          152 3 callgsubr
          188 542 188 -99 callsubr
          730 987 -37 callgsubr
        </CharString>
        <CharString name="Omega">
          578 0 170 1055 168 hstem
          207 190 912 190 vstem
          1533 170 rmoveto
          -287 hlineto
          142 131 111 194 231 vvcurveto
          430 -310 237 -336 -336 -310 -237 -430 -231 111 -194 141 -131 vhcurveto
          -286 -170 565 92 hlineto
          -249 207 -92 203 225 vvcurveto
          274 166 224 290 290 166 -224 -274 -225 -92 -203 -249 -207 vhcurveto
          -92 565 vlineto
          endchar
        </CharString>
        <CharString name="Oslash">
          408 -16 168 -143 -21 1252 168 -4 -20 120 -20 hstemhm
          94 1295 -1280 200 918 200 hintmask 01011100
          1259 1504 rmoveto
          -245 -322 130 -101 245 323 rlineto
          -1030 -1071 rmoveto
          -265 -345 130 -100 265 344 rlineto
          hintmask 10100011
          938 462 -59 callgsubr
        </CharString>
        <CharString name="Otilde">
          -47 callgsubr
          121 -18 callsubr
          109 200 44 13 callgsubr
          42 200 hintmask 11001001
          -106 callgsubr
          hintmask 00000000
          724 1095 -82 callsubr
        </CharString>
        <CharString name="P">
          21 -21 510 64 callgsubr
          hstem
          -7 callgsubr
          537 208 vstem
          -45 callgsubr
          endchar
        </CharString>
        <CharString name="Q">
          408 -386 194 176 168 -139 -21 1248 168 3 callgsubr
          392 627 -101 200 hintmask 10100100
          701 -20 rmoveto
          -211 111 181 -155 290 hhcurveto
          12 21 1 2 12 hvcurveto
          193 vlineto
          -2 -13 -12 0 -19 hhcurveto
          -149 -143 58 126 -93 hvcurveto
          -105 99 rlineto
          hintmask 01011010
          633 603 -59 callgsubr
        </CharString>
        <CharString name="R">
          0 10 callgsubr
          -24 callsubr
          537 208 vstemhm
          1162 hmoveto
          194 vlineto
          hintmask 11111000
          -94 callgsubr
          endchar
        </CharString>
        <CharString name="Racute">
          0 10 callgsubr
          138 367 -24 callsubr
          88 466 -17 -73 callgsubr
          554 665 -96 callsubr
        </CharString>
        <CharString name="Rcaron">
          0 10 callgsubr
          161 422 -24 callsubr
          -103 648 -8 -73 callgsubr
          221 321 -91 callgsubr
        </CharString>
        <CharString name="Rcommaaccent">
          -7 callsubr
          377 10 callgsubr
          -24 callsubr
          137 170 230 208 hintmask 01111010
          -88 callgsubr
          hintmask 10000100
          18 -1742 -95 callgsubr
        </CharString>
        <CharString name="S">
          -10 13 callsubr
          hstem
          47 callgsubr
          541 199 vstem
          -106 callsubr
          endchar
        </CharString>
        <CharString name="Sacute">
          -10 13 callsubr
          128 -5 callsubr
          47 callgsubr
          166 466 -91 -100 callsubr
          478 1907 -96 callsubr
        </CharString>
        <CharString name="Scaron">
          -84 callsubr
          1563 -91 callgsubr
        </CharString>
        <CharString name="Scedilla">
          -25 0 83 203 endchar
        </CharString>
        <CharString name="Scircumflex">
          -84 callsubr
          1985 -101 callsubr
        </CharString>
        <CharString name="Scommaaccent">
          -7 callsubr
          367 13 callsubr
          hstemhm
          47 callgsubr
          163 170 208 199 hintmask 01110100
          -106 callsubr
          hintmask 10001000
          -110 -500 -95 callgsubr
        </CharString>
        <CharString name="T">
          21 -21 15 callgsubr
          58 callsubr
          -53 callgsubr
          endchar
        </CharString>
        <CharString name="Tbar">
          21 -21 680 144 392 58 callsubr
          954 824 rmoveto
          -259 392 419 1 callgsubr
          -392 -261 -144 261 -680 200 680 259 hlineto
          endchar
        </CharString>
        <CharString name="Tcaron">
          21 -21 15 callgsubr
          176 38 callgsubr
          270 648 -423 200 hintmask 11101000
          -53 callgsubr
          -101 337 rmoveto
          hintmask 11110000
          -92 callsubr
        </CharString>
        <CharString name="Tcommaaccent">
          12 callgsubr
          15 callgsubr
          176 hstemhm
          495 200 -185 170 hintmask 11110000
          -53 callgsubr
          -304 -1726 rmoveto
          hintmask 11101000
          -96 callgsubr
        </CharString>
        <CharString name="Thorn">
          21 -21 280 64 callgsubr
          230 -20 70 callsubr
          198 537 208 vstem
          589 280 -15 callgsubr
          -193 230 -55 callsubr
          -2 280 rlineto
          199 722 -81 callgsubr
          endchar
        </CharString>
        <CharString name="U">
          -53 callsubr
          20 callgsubr
          657 24 callsubr
          -103 callgsubr
          endchar
        </CharString>
        <CharString name="Uacute">
          -19 callsubr
          194 466 -3 -93 callsubr
          331 1913 -96 callsubr
        </CharString>
        <CharString name="Ubreve">
          -26 callsubr
          144 -54 callgsubr
          -7 -8 callgsubr
          -6 200 hintmask 11010010
          -103 callgsubr
          hintmask 00101100
          -336 1873 -98 callgsubr
        </CharString>
        <CharString name="Ucircumflex">
          -53 callsubr
          181 44 callsubr
          3 648 6 -93 callsubr
          -2 1991 -101 callsubr
        </CharString>
        <CharString name="Udieresis">
          -53 callsubr
          -54 callgsubr
          657 200 vstemhm
          -103 callgsubr
          221 1798 -105 callgsubr
        </CharString>
        <CharString name="Ugrave">
          -19 callsubr
          -2 466 193 -93 callsubr
          -43 1546 -76 callsubr
        </CharString>
        <CharString name="Uhungarumlaut">
          -19 callsubr
          12 884 -239 -93 callsubr
          567 1913 -81 callsubr
        </CharString>
        <CharString name="Umacron">
          -26 callsubr
          152 -54 callgsubr
          57 542 58 -93 callsubr
          270 1698 -37 callgsubr
        </CharString>
        <CharString name="Uogonek">
          237 27 callsubr
          343 172 1236 -20 -54 callgsubr
          260 169 228 200 hintmask 10001000
          1020 11 callsubr
          55 118 101 104 145 119 hvcurveto
          -49 17 -130 -5 rlineto
          -190 -182 -46 -96 -64 callgsubr
          hintmask 01110100
          -337 472 -104 callgsubr
          endchar
        </CharString>
        <CharString name="Uring">
          -53 callsubr
          131 66 callgsubr
          -54 callgsubr
          52 65 callsubr
          52 200 hintmask 11001001
          -103 callgsubr
          hintmask 00110110
          -277 1787 -79 callgsubr
        </CharString>
        <CharString name="Utilde">
          -53 callsubr
          157 -18 callsubr
          154 200 -87 13 callgsubr
          -88 200 hintmask 11001001
          -103 callgsubr
          hintmask 00000000
          264 1806 -82 callsubr
        </CharString>
        <CharString name="V">
          72 0 -74 callsubr
          hstem
          -44 1288 vstem
          164 -74 callsubr
          rmoveto
          -208 hlineto
          548 -57 callgsubr
          69 callsubr
          548 -74 callsubr
          28 callsubr
          -435 -1144 rlineto
          endchar
        </CharString>
        <CharString name="W">
          749 -77 callsubr
          hstem
          69 callgsubr
          vstem
          -97 callgsubr
          endchar
        </CharString>
        <CharString name="Wacute">
          23 callgsubr
          -1070 466 -86 callsubr
          -404 505 -96 callsubr
        </CharString>
        <CharString name="Wcircumflex">
          749 19 callgsubr
          69 callgsubr
          -1261 648 -86 callsubr
          -737 583 -101 callsubr
        </CharString>
        <CharString name="Wdieresis">
          749 -77 callsubr
          hstemhm
          69 callgsubr
          vstemhm
          -97 callgsubr
          -514 390 -105 callgsubr
        </CharString>
        <CharString name="Wgrave">
          23 callgsubr
          -1266 466 -86 callsubr
          -778 138 -76 callsubr
        </CharString>
        <CharString name="X">
          -77 callsubr
          hstem
          20 1162 vstem
          239 hmoveto
          347 570 374 -570 rlineto
          222 hlineto
          -487 718 448 674 rlineto
          -210 hlineto
          -336 -533 -329 533 rlineto
          -223 hlineto
          440 -687 -465 -705 rlineto
          endchar
        </CharString>
        <CharString name="Y">
          72 -77 callsubr
          hstem
          497 208 vstem
          -83 callgsubr
          endchar
        </CharString>
        <CharString name="Yacute">
          72 -45 callsubr
          466 466 -435 -65 callsubr
          227 -11 callgsubr
        </CharString>
        <CharString name="Ycircumflex">
          72 19 callgsubr
          275 648 -426 -65 callsubr
          -106 -59 callsubr
        </CharString>
        <CharString name="Ydieresis">
          72 -77 callsubr
          hstemhm
          497 208 vstemhm
          -83 callgsubr
          117 -70 callsubr
        </CharString>
        <CharString name="Ygrave">
          72 -45 callsubr
          270 466 -239 -65 callsubr
          -147 -10 callgsubr
        </CharString>
        <CharString name="Z">
          23 callsubr
          hstem
          91 994 vstem
          -80 callgsubr
          endchar
        </CharString>
        <CharString name="Zacute">
          237 23 callsubr
          138 -5 callsubr
          91 994 -521 466 -69 callsubr
          -55 505 -96 callsubr
        </CharString>
        <CharString name="Zcaron">
          237 23 callsubr
          38 callgsubr
          91 994 -712 648 -69 callsubr
          -388 161 -91 callgsubr
        </CharString>
        <CharString name="Zdotaccent">
          237 23 callsubr
          37 callsubr
          91 994 -510 247 -69 callsubr
          -389 390 rmoveto
          -94 callsubr
        </CharString>
        <CharString name="a">
          -75 callgsubr
          endchar
        </CharString>
        <CharString name="aacute">
          7 callgsubr
          242 367 55 callgsubr
          255 466 -229 -32 callgsubr
          hintmask 01010101
          34 callsubr
          hintmask 10100101
          -90 callgsubr
          hintmask 00001010
          464 1482 -96 callsubr
        </CharString>
        <CharString name="abreve">
          78 callgsubr
          198 endchar
        </CharString>
        <CharString name="acircumflex">
          78 callgsubr
          71 callsubr
        </CharString>
        <CharString name="acute">
          64 67 callgsubr
          509 466 vstem
          975 1621 -96 callsubr
        </CharString>
        <CharString name="acute.cap">
          55 callsubr
          367 hstem
          121 466 vstem
          587 -11 callgsubr
        </CharString>
        <CharString name="adieresis">
          -75 callgsubr
          hintmask 00000000
          321 1299 -105 callgsubr
        </CharString>
        <CharString name="ae">
          17 callgsubr
          hstemhm
          92 200 476 188 -171 171 455 200 hintmask 0111011010000000
          -82 callgsubr
          hintmask 1010110110000000
          -57 callsubr
          endchar
        </CharString>
        <CharString name="aeacute">
          17 callgsubr
          206 -5 callsubr
          92 200 476 188 -175 466 -462 171 455 200 hintmask 0111001100100000
          -82 callgsubr
          hintmask 1010101001100000
          -57 callsubr
          hintmask 0000010010000000
          385 748 -96 callsubr
        </CharString>
        <CharString name="agrave">
          66 261 0 97 82 callgsubr
        </CharString>
        <CharString name="amacron">
          66 340 0 97 197 endchar
        </CharString>
        <CharString name="ampersand">
          236 -16 160 -123 -21 657 170 397 168 hstemhm
          149 202 -159 202 582 192 hintmask 00000000
          hintmask 10111010
          746 1224 rmoveto
          120 86 -10 -13 70 hvcurveto
          180 vlineto
          8 -77 -114 3 -85 hhcurveto
          -433 -121 -197 -172 hvcurveto
          hintmask 10110110
          -127 83 -107 139 -56 vhcurveto
          -3 vlineto
          -214 -88 -51 -162 -90 vvcurveto
          -276 186 -130 262 142 161 63 80 88 vhcurveto
          7 -127 rlineto
          173 hlineto
          hintmask 10111010
          657 124 170 vlineto
          hintmask 01110110
          -612 hlineto
          -132 -154 29 166 122 114 80 238 hvcurveto
          230 -566 rmoveto
          -387 vlineto
          -74 -76 -121 -53 -147 hhcurveto
          -174 -107 81 162 hvcurveto
          hintmask 10110110
          133 106 137 222 vhcurveto
          endchar
        </CharString>
        <CharString name="aogonek">
          66 44 callgsubr
          1032 -20 55 callgsubr
          275 169 48 200 hintmask 11001000
          1018 -38 callgsubr
          77 62 53 callgsubr
          -38 24 -125 22 rlineto
          -199 -109 -55 -115 -64 callgsubr
          hintmask 00000000
          -169 488 rmoveto
          180 1032 hlineto
          hintmask 01110100
          -90 callgsubr
          endchar
        </CharString>
        <CharString name="approxequal">
          66 282 174 0 174 42 174 0 174 hstemhm
          116 152 659 152 hintmask 00000000
          hintmask 01011100
          927 963 rmoveto
          hintmask 01101100
          -31 callsubr
          hintmask 10101100
          29 callsubr
          -152 -390 rmoveto
          -31 callsubr
          hintmask 10011100
          29 callsubr
          endchar
        </CharString>
        <CharString name="aring">
          66 254 0 97 202 endchar
        </CharString>
        <CharString name="asciicircum">
          65 -74 callsubr
          -20 hstem
          34 1125 vstem
          239 340 rmoveto
          329 689 28 89 28 -89 318 -689 rlineto
          217 hlineto
          -503 1052 rlineto
          -120 hlineto
          -502 -1052 rlineto
          endchar
        </CharString>
        <CharString name="asciitilde">
          478 152 102 70 callgsubr
          20 160 834 160 vstem
          1014 811 rmoveto
          -102 -57 -79 -79 -93 -76 72 49 -75 vhcurveto
          76 -118 -72 57 -128 hhcurveto
          -163 -133 -123 -210 hvcurveto
          160 hlineto
          102 57 79 79 72 65 -52 -69 104 vhcurveto
          -70 105 91 -63 125 hhcurveto
          163 133 123 210 hvcurveto
          endchar
        </CharString>
        <CharString name="asterisk">
          1047 -20 hstem
          140 911 vstem
          1051 1141 rmoveto
          -54 168 -346 -157 33 378 rlineto
          -177 hlineto
          34 -377 -348 149 -53 -167 366 -88 -247 -283 142 -103 195 321 193 -315 143 103 -247 282 rlineto
          endchar
        </CharString>
        <CharString name="at">
          916 -500 159 293 147 -134 149 590 157 325 146 hstemhm
          109 169 301 192 419 184 391 169 80 callgsubr
          hintmask 1011111110000000
          1407 -286 rmoveto
          -25 -49 -154 -30 -124 hhcurveto
          -493 -309 342 420 421 338 344 417 482 250 -340 -376 hvcurveto
          hintmask 1101111110000000
          -258 -91 -113 -116 -127 -57 134 111 vhcurveto
          500 vlineto
          10 -80 -65 7 -127 hhcurveto
          -248 -275 -139 -339 hvcurveto
          hintmask 1011111110000000
          -301 204 -117 187 177 96 119 53 32 vhcurveto
          hintmask 1101111110000000
          -129 49 152 -56 81 hhcurveto
          247 130 270 247 458 -325 405 -576 -504 -420 -409 -502 -500 383 -421 588 122 131 29 23 63 hvcurveto
          hintmask 1011111110000000
          -412 562 rmoveto
          -78 -135 55 215 223 128 97 187 32 51 -4 -5 21 hvcurveto
          -438 vlineto
          -48 -25 -62 -95 -119 hhcurveto
          endchar
        </CharString>
        <CharString name="atilde">
          78 callgsubr
          196 endchar
        </CharString>
        <CharString name="b">
          64 21 callsubr
          894 154 440 -20 hstemhm
          168 201 494 68 callsubr
          hintmask 10111100
          368 1488 rmoveto
          -200 hlineto
          hintmask 01111100
          -1488 vlineto
          hintmask 10111100
          -8 84 77 -7 134 40 callsubr
          106 -169 -135 -102 -73 -46 -41 hvcurveto
          238 -35 rmoveto
          100 157 -63 26 callsubr
          615 63 callsubr
        </CharString>
        <CharString name="backslash">
          -274 36 callsubr
          2 826 vstem
          828 -170 rmoveto
          -648 15 callsubr
          rlineto
          -178 hlineto
          648 -1530 rlineto
          endchar
        </CharString>
        <CharString name="bar">
          30 callgsubr
          -170 rmoveto
          15 callsubr
          -180 -1530 vlineto
          endchar
        </CharString>
        <CharString name="braceleft">
          -105 -179 1749 hstem
          172 794 vstem
          469 709 rmoveto
          154 66 57 101 263 vvcurveto
          104 vlineto
          116 16 73 153 29 64 48 callgsubr
          142 vlineto
          6 -29 -49 2 -29 hhcurveto
          -342 -7 48 callsubr
          hvcurveto
          -61 vlineto
          -316 -82 -61 -185 vhcurveto
          -71 -145 71 hlineto
          185 82 -65 -316 hvcurveto
          -61 vlineto
          -174 7 -188 342 29 49 2 6 29 vhcurveto
          142 vlineto
          -7 -24 -64 -5 -29 hhcurveto
          -153 -16 73 116 hvcurveto
          104 vlineto
          263 -57 109 -154 66 vhcurveto
          endchar
        </CharString>
        <CharString name="braceright">
          -105 -179 1749 hstem
          95 794 vstem
          592 690 rmoveto
          -154 -66 -57 -109 -263 vvcurveto
          -104 vlineto
          -116 -16 -73 -153 -29 -64 5 7 -24 vhcurveto
          -142 vlineto
          -6 29 49 -2 29 hhcurveto
          342 7 188 174 hvcurveto
          61 vlineto
          316 82 65 185 vhcurveto
          71 145 -71 hlineto
          -185 -82 61 316 hvcurveto
          61 vlineto
          174 -7 188 -342 -29 -49 -2 -6 -29 vhcurveto
          -142 vlineto
          7 24 64 5 29 hhcurveto
          153 16 -73 -116 hvcurveto
          -104 vlineto
          -263 57 -101 154 -66 vhcurveto
          endchar
        </CharString>
        <CharString name="bracketleft">
          41 callsubr
          161 181 vstem
          342 1424 rmoveto
          260 138 -441 -1734 443 138 -262 hlineto
          endchar
        </CharString>
        <CharString name="bracketright">
          41 callsubr
          341 181 vstem
          341 -34 rmoveto
          -262 -138 443 1734 -441 -138 260 hlineto
          endchar
        </CharString>
        <CharString name="breve">
          63 1200 144 hstem
          175 -8 callgsubr
          vstem
          175 1527 -98 callgsubr
        </CharString>
        <CharString name="breve.cap">
          55 callsubr
          144 hstem
          5 -8 callgsubr
          vstem
          5 1857 -98 callgsubr
        </CharString>
        <CharString name="brokenbar">
          30 callgsubr
          690 rmoveto
          670 -180 -670 vlineto
          -191 vmoveto
          -669 180 669 vlineto
          endchar
        </CharString>
        <CharString name="bullet">
          -275 342 612 hstem
          120 612 vstem
          120 647 rmoveto
          -166 137 -139 168 168 139 139 166 169 -139 138 -168 -168 -137 -138 -169 vhcurveto
          endchar
        </CharString>
        <CharString name="c">
          60 callgsubr
          hstemhm
          109 68 callsubr
          hintmask 11010000
          4 callgsubr
          hintmask 10110000
          178 vlineto
          hintmask 11010000
          -23 callgsubr
          endchar
        </CharString>
        <CharString name="cacute">
          60 callgsubr
          236 -5 callsubr
          109 208 208 466 hintmask 00000000
          hintmask 11001000
          4 callgsubr
          hintmask 10101000
          178 vlineto
          hintmask 11001000
          -23 callgsubr
          hintmask 00010100
          321 1473 -96 callsubr
        </CharString>
        <CharString name="caron">
          31 callsubr
          1222 -91 callgsubr
        </CharString>
        <CharString name="caron.cap">
          32 callgsubr
          1553 -91 callgsubr
        </CharString>
        <CharString name="caronvertical">
          -611 886 157 hstem
          171 172 vstem
          59 -56 callgsubr
          endchar
        </CharString>
        <CharString name="ccaron">
          -106 103 0 99 207 endchar
        </CharString>
        <CharString name="ccedilla">
          -106 -17 0 99 203 endchar
        </CharString>
        <CharString name="ccircumflex">
          -106 103 0 99 71 callsubr
        </CharString>
        <CharString name="cdotaccent">
          -106 358 0 99 58 callgsubr
        </CharString>
        <CharString name="cedilla">
          -107 33 callgsubr
          hstem
          502 77 callsubr
          vstem
          502 -219 -74 callgsubr
        </CharString>
        <CharString name="cedilla.cap">
          -107 -509 128 174 112 hstem
          510 128 96 144 vstem
          510 -207 rmoveto
          104 hlineto
          80 40 -16 -48 -88 -115 -22 -109 hvcurveto
          -128 vlineto
          114 254 35 203 113 -66 63 -158 hvcurveto
          -16 179 -128 hlineto
          endchar
        </CharString>
        <CharString name="cent">
          -104 0 103 -103 163 707 161 -51 51 hstem
          99 201 227 152 vstem
          679 31 callgsubr
          340 1 vlineto
          71 114 2 16 67 hvcurveto
          179 vlineto
          -16 -37 -72 -18 -133 hhcurveto
          -280 -110 170 195 180 112 162 288 108 79 -14 -13 37 hvcurveto
          178 vlineto
          9 -59 -94 1 -71 -7 -7 -1 -7 hhcurveto
          330 -152 -348 vlineto
          -236 -51 -192 -160 -273 vvcurveto
          -291 160 -178 268 -47 vhcurveto
          -352 vlineto
          endchar
        </CharString>
        <CharString name="circumflex">
          31 callsubr
          1644 -101 callsubr
        </CharString>
        <CharString name="circumflex.cap">
          32 callgsubr
          -59 callsubr
        </CharString>
        <CharString name="colon">
          -616 -25 254 569 254 hstemhm
          47 callsubr
          hintmask 10100000
          256 229 -67 callsubr
          hintmask 01100000
          823 vmoveto
          -20 callgsubr
        </CharString>
        <CharString name="comma">
          -616 -388 165 hstem
          180 193 vstem
          24 -388 4 callsubr
        </CharString>
        <CharString name="commaaccent">
          -29 callgsubr
        </CharString>
        <CharString name="commaaccent.cap">
          -29 callgsubr
        </CharString>
        <CharString name="copyright">
          741 -227 144 215 146 584 142 214 144 hstem
          136 152 229 177 887 -64 callsubr
          711 -435 rmoveto
          93 61 7 9 38 hvcurveto
          156 vlineto
          -11 -27 -60 -15 -93 hhcurveto
          -214 -103 135 169 171 117 109 210 70 62 -14 -6 27 hvcurveto
          152 vlineto
          4 -36 -51 6 -79 hhcurveto
          -248 -249 -135 -287 -286 207 -164 275 hvcurveto
          endchar
        </CharString>
        <CharString name="currency">
          179 152 527 70 callgsubr
          183 143 538 143 vstem
          594 179 rmoveto
          76 71 20 36 61 hvcurveto
          236 -234 132 131 -233 232 rlineto
          44 66 26 79 86 vvcurveto
          85 -26 79 -43 66 vhcurveto
          232 234 -131 130 -237 -236 rlineto
          36 -61 -71 21 -76 hhcurveto
          -75 -71 -21 -35 -60 hvcurveto
          -236 236 -131 -132 231 -232 rlineto
          -44 -66 -25 -79 -86 vvcurveto
          -87 25 -80 44 -66 vhcurveto
          -232 -231 131 -131 235 235 rlineto
          -36 61 71 -20 76 hhcurveto
          1 152 rmoveto
          -148 -120 118 146 -1 hvcurveto
          145 121 118 148 148 121 -117 -146 -147 -121 -117 -148 vhcurveto
          endchar
        </CharString>
        <CharString name="d">
          22 callgsubr
          -117 -21 894 154 -4 -20 464 -20 78 callsubr
          494 -32 callgsubr
          hintmask 10011110
          821 1044 rmoveto
          hintmask 10101110
          -9 callgsubr
          hintmask 01101110
          42 callsubr
          hintmask 10101110
          -29 callsubr
        </CharString>
        <CharString name="dagger">
          61 callsubr
          351 hmoveto
          152 874 hlineto
          -6 callgsubr
          endchar
        </CharString>
        <CharString name="daggerdbl">
          61 callsubr
          51 508 rmoveto
          -168 vlineto
          300 24 rlineto
          -364 152 364 vlineto
          18 callsubr
          390 vlineto
          -6 callgsubr
          -390 vlineto
          endchar
        </CharString>
        <CharString name="dcaron">
          237 71 callgsubr
          -117 -21 886 157 -149 154 -4 -20 464 -20 78 callsubr
          494 200 231 172 hintmask 0010000010000000
          1139 -56 callgsubr
          80 callgsubr
          -318 1 rmoveto
          hintmask 1000111100000000
          -9 callgsubr
          hintmask 1001011100000000
          42 callsubr
          hintmask 0101011100000000
          -29 callsubr
        </CharString>
        <CharString name="dcroat">
          66 21 callsubr
          897 154 -66 51 139 136 78 callsubr
          492 200 hintmask 01011110
          838 hmoveto
          180 1175 141 136 -141 129 -199 -129 -316 -136 316 hlineto
          3 -125 rlineto
          hintmask 10101110
          1 -29 -31 0 -36 hhcurveto
          -295 -313 -162 -394 -401 256 -109 29 callgsubr
          106 91 43 31 hvcurveto
          hintmask 01011110
          hintmask 10011110
          -248 -13 callsubr
          hvcurveto
          hintmask 10101110
          28 callgsubr
          120 236 32 50 -4 -4 20 vhcurveto
          -618 -12 callgsubr
          endchar
        </CharString>
        <CharString name="degree">
          -276 706 144 366 144 hstem
          94 152 358 152 vstem
          94 1033 rmoveto
          -181 148 -146 183 183 148 146 181 181 -148 146 -183 -183 -148 -146 -181 vhcurveto
          152 hmoveto
          101 80 82 99 99 80 -82 -101 -101 -80 -82 -99 -99 -80 82 101 vhcurveto
          endchar
        </CharString>
        <CharString name="dieresis">
          -278 1214 25 callgsubr
          1438 -105 callgsubr
        </CharString>
        <CharString name="dieresis.cap">
          -275 1558 25 callgsubr
          -70 callsubr
        </CharString>
        <CharString name="divide">
          66 95 254 170 154 169 254 hstemhm
          127 943 -615 280 hintmask 01010000
          127 673 -1 callgsubr
          hintmask 00101000
          -476 423 -67 callsubr
          hintmask 10001000
          -747 vmoveto
          -20 callgsubr
        </CharString>
        <CharString name="dollar">
          0 96 -96 175 978 71 hstem
          171 199 149 152 179 199 vstem
          671 31 callgsubr
          348 vlineto
          264 32 114 127 142 vvcurveto
          209 -153 80 -198 81 vhcurveto
          -137 56 rlineto
          -134 55 -57 48 71 vvcurveto
          65 54 75 219 153 133 -23 -14 64 vhcurveto
          194 vlineto
          -75 7 -106 10 -141 1 rrcurveto
          306 -152 -314 vlineto
          -242 -32 -106 -127 -140 vvcurveto
          -203 135 -88 178 -69 vhcurveto
          122 -48 rlineto
          162 -64 82 -39 -85 vvcurveto
          -81 -70 -65 -247 -192 -123 22 13 -48 vhcurveto
          -194 vlineto
          -8 61 171 -8 117 hhcurveto
          -340 vlineto
          endchar
        </CharString>
        <CharString name="dotaccent">
          -617 1214 224 hstem
          135 247 vstem
          256 1438 rmoveto
          -94 callsubr
        </CharString>
        <CharString name="dotaccent.cap">
          -616 1558 224 hstem
          218 247 vstem
          339 1782 rmoveto
          -94 callsubr
        </CharString>
        <CharString name="dotlessi">
          -4 callsubr
          20 callgsubr
          vstem
          -43 callsubr
          endchar
        </CharString>
        <CharString name="dotlessj">
          -616 -418 2 callgsubr
          1444 -20 hstemhm
          156 -32 callgsubr
          hintmask 01110000
          62 callsubr
          hintmask 10110000
          -43 callgsubr
          hintmask 01110000
          -16 callsubr
          endchar
        </CharString>
        <CharString name="e">
          -42 callgsubr
          hstem
          73 callsubr
          482 24 callsubr
          -103 callsubr
          endchar
        </CharString>
        <CharString name="eacute">
          -42 callgsubr
          206 -5 callsubr
          73 callsubr
          220 466 -204 -88 callsubr
          428 727 -96 callsubr
        </CharString>
        <CharString name="ebreve">
          -42 callgsubr
          152 144 hstemhm
          73 callsubr
          -27 160 349 200 -199 160 -95 callsubr
          hintmask 00010101
          -285 633 -98 callgsubr
        </CharString>
        <CharString name="ecaron">
          -42 callgsubr
          174 14 callsubr
          73 callsubr
          -16 648 -150 -88 callsubr
          50 328 -91 callgsubr
        </CharString>
        <CharString name="ecircumflex">
          -103 77 0 101 71 callsubr
        </CharString>
        <CharString name="edieresis">
          -42 callgsubr
          hstemhm
          73 callsubr
          482 200 vstemhm
          -103 callsubr
          285 544 -105 callgsubr
        </CharString>
        <CharString name="edotaccent">
          -42 callgsubr
          37 callsubr
          73 callsubr
          188 247 47 -88 callsubr
          51 544 rmoveto
          -94 callsubr
        </CharString>
        <CharString name="egrave">
          -103 168 0 101 82 callgsubr
        </CharString>
        <CharString name="eight">
          237 -16 150 482 154 444 155 hstemhm
          159 202 -163 203 563 202 -163 202 hintmask 00000000
          hintmask 11101100
          681 1369 rmoveto
          -358 -125 -214 -150 -126 91 -121 107 -55 hvcurveto
          -3 vlineto
          -169 -75 -68 -152 -98 vvcurveto
          hintmask 11110010
          -236 195 -155 328 327 196 155 236 98 -68 152 -169 75 vhcurveto
          3 vlineto
          107 55 91 121 126 vvcurveto
          hintmask 11101100
          150 -116 214 -369 vhcurveto
          2 -155 rmoveto
          205 76 -105 -104 -131 -114 -104 -169 hvcurveto
          hintmask 11110010
          -166 -114 104 131 104 76 105 206 hvcurveto
          -2 -1080 rmoveto
          -160 1 -160 76 164 vvcurveto
          124 93 117 228 vhcurveto
          hintmask 11110100
          228 93 -117 -124 hvcurveto
          hintmask 11101100
          -164 -160 -77 -162 vhcurveto
          endchar
        </CharString>
        <CharString name="ellipsis">
          405 -25 45 callgsubr
          231 280 231 280 cntrmask 01110000
          1278 229 -67 callsubr
          -511 hmoveto
          -85 callgsubr
          -511 hmoveto
          -20 callgsubr
        </CharString>
        <CharString name="emacron">
          -103 247 0 101 197 endchar
        </CharString>
        <CharString name="emdash">
          752 519 152 70 callsubr
          15 callsubr
          vstem
          1700 671 rmoveto
          -1530 -152 15 callsubr
          hlineto
          endchar
        </CharString>
        <CharString name="endash">
          519 152 70 callsubr
          850 vstem
          1020 671 rmoveto
          -850 -152 850 hlineto
          endchar
        </CharString>
        <CharString name="eng">
          -418 2 callgsubr
          433 -21 879 172 -19 -20 hstemhm
          156 200 495 201 hintmask 00000000
          hintmask 01101110
          1052 hmoveto
          567 vlineto
          hintmask 01110110
          9 callsubr
          -128 -41 -87 -110 vhcurveto
          hintmask 01101110
          -18 109 rlineto
          -180 -8 callsubr
          778 hlineto
          hintmask 10110110
          -27 callsubr
          -227 -1 -361 vlineto
          -43 callgsubr
          hintmask 01101110
          -16 callsubr
          22 vlineto
          endchar
        </CharString>
        <CharString name="eogonek">
          -103 27 callsubr
          343 -48 callgsubr
          hstemhm
          73 callsubr
          206 169 107 200 hintmask 10000100
          891 -38 callgsubr
          77 55 84 194 91 hvcurveto
          -39 24 -3 callsubr
          hintmask 01111010
          -254 472 -104 callsubr
          endchar
        </CharString>
        <CharString name="equal">
          66 340 154 201 154 hstem
          97 1003 vstem
          97 849 19 callsubr
          -1003 -355 19 callsubr
          endchar
        </CharString>
        <CharString name="eth">
          70 -16 155 625 161 570 -20 hstem
          100 208 595 24 callsubr
          1004 1495 rmoveto
          -269 -115 -80 63 -89 49 -96 38 rlinecurve
          -177 -87 70 -29 96 -45 96 -66 rlinecurve
          -184 -79 47 -144 269 115 100 -99 85 -130 29 -169 rlinecurve
          -4 hlineto
          100 -68 -144 28 -102 hhcurveto
          -242 -241 -166 -301 -299 235 -175 266 297 205 241 341 296 -95 234 -152 171 hvcurveto
          195 83 rlineto
          -743 -891 rmoveto
          163 94 142 199 192 110 -145 -160 -134 -81 -186 -221 -206 -87 159 161 vhcurveto
          endchar
        </CharString>
        <CharString name="exclam">
          -616 -25 254 -254 1475 hstemhm
          47 callsubr
          hintmask 00000000
          356 1450 rmoveto
          -200 hlineto
          16 -1036 rlineto
          hintmask 01100000
          168 hlineto
          hintmask 10100000
          -84 -185 rmoveto
          -20 callgsubr
        </CharString>
        <CharString name="exclamdown">
          -616 -398 1475 -254 254 hstemhm
          47 callsubr
          hintmask 00000000
          hintmask 10100000
          258 823 rmoveto
          80 59 46 81 82 -59 45 -80 -81 -60 -45 -82 hvcurveto
          hintmask 01100000
          -81 60 -46 81 vhcurveto
          -100 -1221 rmoveto
          200 hlineto
          -16 1036 rlineto
          -168 hlineto
          endchar
        </CharString>
        <CharString name="f">
          -444 66 callsubr
          318 77 callgsubr
          180 -32 callgsubr
          hintmask 11101000
          56 879 rmoveto
          35 callsubr
          879 258 153 -258 137 hlineto
          116 39 65 153 29 54 48 callgsubr
          hintmask 11011000
          158 vlineto
          hintmask 11101000
          6 -29 -47 2 -29 hhcurveto
          -358 -36 48 callsubr
          hvcurveto
          -110 vlineto
          -124 -59 rlineto
          endchar
        </CharString>
        <CharString name="ff">
          238 66 callsubr
          -153 154 313 77 callgsubr
          180 200 440 -32 callgsubr
          hintmask 10110110
          380 879 rmoveto
          440 -879 200 879 250 hlineto
          hintmask 11010110
          153 -250 -10 callsubr
          -36 48 callsubr
          hvcurveto
          -105 vlineto
          -440 -1 rlineto
          -10 callsubr
          -34 48 callsubr
          -2 hvcurveto
          -1 -105 -123 -60 rlineto
          -94 35 callsubr
          vlineto
          endchar
        </CharString>
        <CharString name="fi">
          66 callsubr
          182 236 -104 154 -8 -20 -24 callsubr
          422 260 -232 -32 callgsubr
          hintmask 11010101
          46 879 rmoveto
          35 callsubr
          879 450 -879 200 1032 -650 133 hlineto
          11 callgsubr
          hintmask 11001101
          158 vlineto
          hintmask 11010101
          37 callgsubr
          -358 -34 48 callsubr
          -2 hvcurveto
          -1 -105 -123 -60 rlineto
          hintmask 11100110
          874 477 -40 callgsubr
          endchar
        </CharString>
        <CharString name="five">
          852 316 hstem
          141 929 vstem
          1070 431 rmoveto
          299 -184 122 -399 vhcurveto
          -117 316 629 188 -821 -672 279 hlineto
          320 87 -95 -154 -183 -134 -79 -260 -115 -148 19 19 -66 hvcurveto
          -194 vlineto
          -16 66 183 -10 80 hhcurveto
          423 177 196 244 hvcurveto
          endchar
        </CharString>
        <CharString name="fl">
          235 -6 152 -125 79 callsubr
          314 112 -112 154 -24 callsubr
          480 200 hintmask 10101110
          850 390 -25 callgsubr
          vhcurveto
          hintmask 01101110
          22 25 3 3 25 hvcurveto
          22 callsubr
          hintmask 10110110
          -55 callgsubr
          1067 -1 2 vlineto
          hintmask 01101110
          6 -29 -178 34 -195 hhcurveto
          -409 -68 -196 -198 hvcurveto
          -73 vlineto
          -124 -60 rlineto
          -94 35 callsubr
          879 250 153 -250 77 vlineto
          181 87 56 191 65 72 -9 -12 65 vhcurveto
          endchar
        </CharString>
        <CharString name="florin">
          -106 -323 154 1020 -63 callsubr
          154 hstem
          34 953 vstem
          867 1005 57 callsubr
          hlineto
          3 19 rlineto
          114 18 33 67 153 hhcurveto
          29 51 -5 -7 24 hvcurveto
          158 vlineto
          37 callgsubr
          -353 -10 -184 -170 -26 hvcurveto
          -197 -154 173 hlineto
          -130 -839 rlineto
          -115 -19 -32 -66 -153 hhcurveto
          -29 -51 5 7 -24 hvcurveto
          -158 vlineto
          -6 29 44 -2 29 hhcurveto
          358 5 190 172 27 hvcurveto
          126 812 rlineto
          215 hlineto
          endchar
        </CharString>
        <CharString name="four">
          21 -21 333 176 hstem
          819 202 vstem
          57 333 rmoveto
          762 -333 202 333 114 176 -114 278 -202 -278 -479 hlineto
          508 851 rlineto
          -236 hlineto
          -555 -952 rlineto
          endchar
        </CharString>
        <CharString name="fraction">
          -104 21 -21 hstem
          35 954 vstem
          202 hmoveto
          -11 callsubr
        </CharString>
        <CharString name="g">
          -5 callgsubr
          hstemhm
          88 205 527 -32 callgsubr
          hintmask 11101100
          -44 callgsubr
          hintmask 11011100
          982 vlineto
          hintmask 11101100
          12 -83 -75 4 79 callgsubr
          -347 -169 -370 2 hvcurveto
          -404 2 255 -120 166 hhcurveto
          158 107 72 46 44 hvcurveto
          -53 vlineto
          -222 -57 -83 -220 3 vhcurveto
          30 391 rmoveto
          -107 -173 64 306 266 197 119 228 32 50 72 callgsubr
          -89 -85 -133 hhcurveto
          endchar
        </CharString>
        <CharString name="gbreve">
          66 90 0 103 198 endchar
        </CharString>
        <CharString name="gcircumflex">
          66 90 0 103 71 callsubr
        </CharString>
        <CharString name="gcommaaccent">
          -5 callgsubr
          450 133 hstemhm
          88 205 260 170 97 -83 callsubr
          269 1456 rmoveto
          -210 -79 -60 -233 hvcurveto
          -114 170 114 vlineto
          123 44 37 75 vhcurveto
          endchar
        </CharString>
        <CharString name="gdotaccent">
          -5 callgsubr
          202 56 callgsubr
          88 205 187 247 93 -83 callsubr
          28 1299 rmoveto
          -94 callsubr
        </CharString>
        <CharString name="germandbls">
          62 -16 1514 hstem
          356 153 vstem
          710 1037 rmoveto
          -109 -74 -105 -49 -114 vvcurveto
          -150 71 -46 156 -84 vhcurveto
          89 -48 rlineto
          105 -57 23 -57 -57 vvcurveto
          -58 -26 -95 -197 -79 -64 14 17 -65 vhcurveto
          -177 vlineto
          -11 76 62 -7 70 hhcurveto
          310 121 159 158 168 -105 76 -162 94 hvcurveto
          -95 55 rlineto
          -80 46 -10 21 33 vvcurveto
          34 41 25 61 40 vhcurveto
          124 82 100 67 160 vvcurveto
          150 -117 146 -280 -325 -144 -183 -281 vhcurveto
          -1034 200 1033 vlineto
          261 127 51 141 172 39 -94 -49 -81 -69 -46 -56 -38 vhcurveto
          endchar
        </CharString>
        <CharString name="grave">
          -447 67 callgsubr
          92 466 vstem
          380 1254 -76 callsubr
        </CharString>
        <CharString name="grave.cap">
          -447 15 callsubr
          367 hstem
          97 466 vstem
          385 -10 callgsubr
        </CharString>
        <CharString name="greater">
          62 107 967 hstem
          114 1003 vstem
          858 590 5 callsubr
          endchar
        </CharString>
        <CharString name="greaterequal">
          62 1 154 hstem
          116 1004 vstem
          860 765 5 callsubr
          1 -911 19 callsubr
          endchar
        </CharString>
        <CharString name="guillemotleft">
          578 64 931 hstem
          221 1225 vstem
          1446 799 -28 callsubr
          -420 273 rlineto
          -194 266 -28 callsubr
          -420 273 rlineto
          endchar
        </CharString>
        <CharString name="guillemotright">
          577 64 931 hstem
          281 1225 vstem
          701 533 rmoveto
          -420 -33 callgsubr
          1034 -266 rmoveto
          -420 -33 callgsubr
          endchar
        </CharString>
        <CharString name="guilsinglleft">
          -104 64 931 70 callsubr
          611 vstem
          781 799 -28 callsubr
          -429 273 rlineto
          endchar
        </CharString>
        <CharString name="guilsinglright">
          -104 64 931 hstem
          239 611 vstem
          668 533 rmoveto
          -429 -33 callgsubr
          endchar
        </CharString>
        <CharString name="h">
          66 36 callgsubr
          440 -20 62 callgsubr
          -42 callsubr
          endchar
        </CharString>
        <CharString name="hbar">
          69 21 -21 879 172 122 136 62 callgsubr
          676 1309 rmoveto
          -321 131 -200 -131 -127 -136 127 -1173 200 778 hlineto
          -27 callsubr
          -567 200 567 -15 callsubr
          249 321 vlineto
          endchar
        </CharString>
        <CharString name="hcircumflex">
          66 36 callgsubr
          440 -20 85 14 callsubr
          46 callgsubr
          -31 648 -121 200 hintmask 11101010
          -42 callsubr
          hintmask 00010100
          -203 -59 callsubr
        </CharString>
        <CharString name="hungarumlaut">
          64 67 callgsubr
          228 884 vstem
          1112 1621 -81 callsubr
        </CharString>
        <CharString name="hungarumlaut.cap">
          55 callsubr
          367 hstem
          25 884 vstem
          909 1897 -81 callsubr
        </CharString>
        <CharString name="hyphen">
          -106 518 154 70 callsubr
          680 vstem
          850 672 63 callgsubr
        </CharString>
        <CharString name="i">
          -615 -31 callgsubr
          202 236 hstemhm
          128 260 -234 -32 callgsubr
          hintmask 11101000
          256 1450 -46 callgsubr
          hvcurveto
          hintmask 11110000
          25 callsubr
          endchar
        </CharString>
        <CharString name="iacute">
          -4 callsubr
          242 45 callsubr
          -186 466 hintmask 11010000
          -43 callsubr
          hintmask 00101000
          280 1621 -96 callsubr
        </CharString>
        <CharString name="ibreve">
          -4 callsubr
          188 144 hstemhm
          -79 160 73 200 77 160 hintmask 11001000
          -43 callsubr
          hintmask 00110100
          -433 1527 -98 callgsubr
        </CharString>
        <CharString name="icircumflex">
          -619 -254 0 245 71 callsubr
        </CharString>
        <CharString name="idieresis">
          -4 callsubr
          -54 callgsubr
          vstemhm
          -43 callsubr
          137 1438 -105 callgsubr
        </CharString>
        <CharString name="igrave">
          -619 -163 0 245 82 callgsubr
        </CharString>
        <CharString name="ij">
          -107 12 callsubr
          431 -22 callgsubr
          202 236 -235 236 hstemhm
          130 260 -234 200 281 260 -232 200 80 callgsubr
          hintmask 0011100100000000
          258 1450 -46 callgsubr
          hvcurveto
          hintmask 0011101000000000
          25 callsubr
          80 callgsubr
          409 1451 -40 callgsubr
          hintmask 1001010010000000
          16 callsubr
          hintmask 1001010001000000
          -154 vlineto
          hintmask 0101010001000000
          27 callgsubr
        </CharString>
        <CharString name="imacron">
          -4 callsubr
          228 152 hstemhm
          -15 542 -373 200 hintmask 11001000
          -43 callsubr
          hintmask 00110000
          173 -74 callsubr
          -37 callgsubr
        </CharString>
        <CharString name="infinity">
          926 262 175 499 175 hstem
          176 190 1321 190 vstem
          176 687 rmoveto
          -121 65 -304 332 189 140 162 115 99 vhcurveto
          7 9 7 7 7 8 19 -21 rcurveline
          -115 99 151 -165 190 hhcurveto
          332 64 301 124 147 -64 277 -332 -185 -136 -159 -115 -102 hvcurveto
          -25 -29 -28 31 rlineto
          -1 vlineto
          115 -102 -145 158 -185 hhcurveto
          -332 -65 -277 -147 hvcurveto
          190 hmoveto
          72 29 177 178 104 118 -119 -88 77 vhcurveto
          16 -18 14 -16 12 -15 -9 -11 -9 -11 -10 -11 rrcurveto
          -86 -76 -134 -124 -103 hhcurveto
          -178 -29 191 59 hvcurveto
          805 42 rmoveto
          87 76 131 120 103 hhcurveto
          179 27 -183 -66 -59 -27 -191 -179 -104 -125 126 86 -76 hvcurveto
          -37 43 rlineto
          endchar
        </CharString>
        <CharString name="integral">
          -276 -520 154 1711 77 callgsubr
          335 174 hintmask 00000000
          hintmask 11010000
          335 -185 rmoveto
          -116 -33 -65 -129 -26 -46 5 7 -22 vhcurveto
          -158 vlineto
          -6 26 40 -2 26 hhcurveto
          321 17 188 174 hvcurveto
          1322 vlineto
          116 33 65 129 29 43 48 callgsubr
          hintmask 10110000
          158 vlineto
          hintmask 11010000
          6 -29 -36 2 -29 hhcurveto
          -321 -17 48 callsubr
          hvcurveto
          endchar
        </CharString>
        <CharString name="iogonek">
          -615 27 callsubr
          359 48 984 -20 202 236 hstemhm
          -59 169 18 219 -193 200 hintmask 11111100
          347 -38 callgsubr
          hvcurveto
          hintmask 11111010
          77 58 82 186 83 vhcurveto
          1032 -200 -1008 vlineto
          -166 -101 -47 -107 -86 -35 callsubr
          vhcurveto
          hintmask 11111100
          43 40 4 18 47 hvcurveto
          -91 1938 -40 callgsubr
          endchar
        </CharString>
        <CharString name="itilde">
          -4 callsubr
          178 -18 callsubr
          -160 152 162 200 166 152 hintmask 11000100
          -43 callsubr
          hintmask 00000000
          166 1451 -50 callsubr
        </CharString>
        <CharString name="j">
          -616 12 callsubr
          1442 -20 203 236 hstemhm
          128 260 -232 -32 callgsubr
          hintmask 10111000
          256 1451 -40 callgsubr
          hintmask 10110100
          16 callsubr
          hintmask 01110100
          -154 vlineto
          hintmask 10110100
          27 callgsubr
        </CharString>
        <CharString name="jcircumflex">
          -616 -418 2 callgsubr
          1444 -20 210 14 callsubr
          -64 648 -428 -32 callgsubr
          hintmask 01100100
          62 callsubr
          hintmask 10100100
          -43 callgsubr
          hintmask 01100100
          -16 callsubr
          hintmask 00011000
          -96 1666 -101 callsubr
        </CharString>
        <CharString name="k">
          -104 -31 callgsubr
          475 -20 hstem
          -7 callgsubr
          vstem
          -21 callsubr
          endchar
        </CharString>
        <CharString name="kcommaaccent">
          -104 12 callgsubr
          1032 -20 475 -20 -24 callsubr
          152 170 hintmask 01111000
          -21 callsubr
          hintmask 10000100
          33 -1036 -95 callgsubr
        </CharString>
        <CharString name="kgreenlandic">
          -104 -31 callgsubr
          21 -20 -24 callsubr
          hintmask 11010000
          -36 callgsubr
          hintmask 10110000
          463 -200 -1033 200 526 vlineto
          endchar
        </CharString>
        <CharString name="l">
          -445 -6 65 callgsubr
          hstem
          198 24 callsubr
          -30 callgsubr
          endchar
        </CharString>
        <CharString name="lacute">
          -445 -6 65 callgsubr
          62 -5 callsubr
          31 466 -299 200 hintmask 11001000
          -30 callgsubr
          hintmask 00110000
          299 409 -96 callsubr
        </CharString>
        <CharString name="lcaron">
          53 callsubr
          740 157 445 -20 hstemhm
          198 200 224 -17 callgsubr
          -312 -653 -87 callgsubr
          endchar
        </CharString>
        <CharString name="lcommaaccent">
          -445 -7 callsubr
          371 65 callgsubr
          hstemhm
          198 200 -70 76 callsubr
          -30 callgsubr
          hintmask 10001000
          11 -1998 -95 callgsubr
        </CharString>
        <CharString name="ldot">
          -272 -6 152 507 224 611 -20 hstemhm
          198 200 151 247 hintmask 01001000
          670 877 -105 callsubr
          hintmask 10110000
          -472 -487 -87 callgsubr
          endchar
        </CharString>
        <CharString name="less">
          62 107 967 hstem
          71 1003 vstem
          1074 891 5 callgsubr
          endchar
        </CharString>
        <CharString name="lessequal">
          62 1 154 hstem
          70 1004 vstem
          1074 1066 5 callgsubr
          -260 -610 19 callsubr
          endchar
        </CharString>
        <CharString name="logicalnot">
          66 686 164 hstem
          866 154 vstem
          866 340 rmoveto
          154 510 -923 -164 769 hlineto
          endchar
        </CharString>
        <CharString name="lozenge">
          68 21 -21 hstem
          88 1020 vstem
          88 680 rmoveto
          450 -680 rlineto
          120 hlineto
          450 681 -450 679 rlineto
          -120 hlineto
          60 -1145 rmoveto
          -300 465 300 465 300 -464 rlineto
          endchar
        </CharString>
        <CharString name="lslash">
          -445 -6 152 441 544 357 -20 hstemhm
          18 566 -386 200 hintmask 01010000
          584 1131 rmoveto
          -566 -372 rlineto
          -172 vlineto
          566 371 rlineto
          hintmask 10101000
          -386 -568 -87 callgsubr
          endchar
        </CharString>
        <CharString name="m">
          750 36 callgsubr
          -140 124 hstemhm
          160 199 484 200 469 200 hintmask 11011100
          1043 hmoveto
          780 vlineto
          57 66 90 39 90 hhcurveto
          150 73 -86 -242 hvcurveto
          -548 200 555 vlineto
          356 -111 137 -249 -85 -134 -26 -132 -145 vhcurveto
          103 -62 -87 55 -133 hhcurveto
          -119 -133 -50 -79 -96 hvcurveto
          hintmask 10111100
          -14 113 rlineto
          -184 -8 callsubr
          hlineto
          -1 775 rlineto
          hintmask 11011100
          52 59 92 49 110 hhcurveto
          155 68 -78 -242 hvcurveto
          -556 vlineto
          endchar
        </CharString>
        <CharString name="macron">
          -447 1240 70 callgsubr
          69 542 vstem
          611 -74 callsubr
          -37 callgsubr
        </CharString>
        <CharString name="macron.cap">
          55 callsubr
          70 callgsubr
          70 542 vstem
          612 1682 -37 callgsubr
        </CharString>
        <CharString name="minus">
          519 154 hstem
          127 943 vstem
          127 673 -1 callgsubr
          endchar
        </CharString>
        <CharString name="mu">
          0 155 877 -20 hstem
          167 186 494 186 vstem
          167 31 callgsubr
          186 hlineto
          -22 435 rlineto
          -57 62 81 -38 102 hhcurveto
          113 115 67 103 72 hvcurveto
          4 hlineto
          -13 -170 rlineto
          166 1032 -186 -713 hlineto
          -60 -25 -78 -104 -161 hhcurveto
          -90 -140 57 244 hvcurveto
          576 -186 vlineto
          endchar
        </CharString>
        <CharString name="multiply">
          66 1035 -20 hstem
          147 896 vstem
          1043 924 rmoveto
          -111 111 -337 -337 -337 337 -111 -111 337 -337 -337 -337 111 -111 337 337 337 -337 111 111 -337 337 rlineto
          endchar
        </CharString>
        <CharString name="n">
          36 callgsubr
          -141 125 hstemhm
          46 callgsubr
          496 200 hintmask 11011000
          -34 callsubr
          hintmask 10111000
          7 callsubr
          hintmask 11011000
          -14 callgsubr
          endchar
        </CharString>
        <CharString name="nacute">
          3 0 110 194 endchar
        </CharString>
        <CharString name="nbspace">
          -446 endchar
        </CharString>
        <CharString name="ncaron">
          90 0 110 207 endchar
        </CharString>
        <CharString name="ncommaaccent">
          12 callgsubr
          876 172 -141 125 hstemhm
          46 callgsubr
          166 170 160 200 hintmask 01101010
          -34 callsubr
          hintmask 01011010
          7 callsubr
          hintmask 01101010
          -14 callgsubr
          hintmask 10000100
          -449 -510 -95 callgsubr
        </CharString>
        <CharString name="nine">
          237 -17 175 335 154 560 70 callgsubr
          137 194 671 24 callsubr
          501 -17 rmoveto
          417 284 266 413 hvcurveto
          61 vlineto
          385 -183 251 -359 -252 -271 -138 -302 -279 193 -147 281 157 144 59 67 90 vhcurveto
          -267 -158 -194 -343 -99 -100 17 13 -42 vhcurveto
          -194 vlineto
          -11 58 109 0 74 hhcurveto
          151 1224 rmoveto
          247 101 -205 -232 hvcurveto
          -51 -52 -139 -72 -152 hhcurveto
          -200 -126 110 172 178 142 100 179 hvcurveto
          endchar
        </CharString>
        <CharString name="notequal">
          66 21 -21 346 154 192 49 callgsubr
          125 943 -908 851 hintmask 10001000
          322 hmoveto
          689 1190 rlineto
          -162 hlineto
          -689 -1190 rlineto
          hintmask 00110000
          -35 846 -1 callgsubr
          hintmask 01010000
          -943 -346 -1 callgsubr
          endchar
        </CharString>
        <CharString name="ntilde">
          36 callgsubr
          -141 125 158 -18 callsubr
          46 callgsubr
          -171 152 515 200 -187 152 hintmask 1100010100000000
          -34 callsubr
          hintmask 1010010100000000
          7 callsubr
          hintmask 1100010100000000
          -14 callgsubr
          80 callgsubr
          13 1451 rmoveto
          hintmask 0000101010000000
          -54 callsubr
          hintmask 0001101010000000
          -91 callsubr
          hintmask 0000101010000000
          -78 callsubr
        </CharString>
        <CharString name="numbersign">
          406 21 -21 340 148 384 148 hstem
          122 1264 vstem
          210 1020 rmoveto
          -148 246 vlineto
          -72 -384 rlineto
          -262 -148 234 43 callgsubr
          345 43 callgsubr
          275 148 -247 hlineto
          72 384 rlineto
          261 148 -233 hlineto
          65 340 rlineto
          -162 54 callsubr
          -346 hlineto
          64 340 rlineto
          -162 54 callsubr
          134 -148 rmoveto
          346 hlineto
          -73 -384 rlineto
          -345 hlineto
          endchar
        </CharString>
        <CharString name="o">
          -13 callgsubr
          hstem
          88 67 callsubr
          vstem
          -100 callgsubr
          endchar
        </CharString>
        <CharString name="oacute">
          26 callgsubr
          211 466 -78 -85 callsubr
          677 1103 -96 callsubr
        </CharString>
        <CharString name="obreve">
          -13 callgsubr
          147 144 hstemhm
          88 208 -36 -8 callgsubr
          -35 208 hintmask 11010010
          -100 callgsubr
          hintmask 00101100
          -36 1009 -98 callgsubr
        </CharString>
        <CharString name="ocircumflex">
          66 85 0 111 71 callsubr
        </CharString>
        <CharString name="odieresis">
          -13 callgsubr
          hstemhm
          88 67 callsubr
          vstemhm
          -100 callgsubr
          534 920 -105 callgsubr
        </CharString>
        <CharString name="oe">
          572 -16 154 -154 -48 callgsubr
          -149 49 callgsubr
          73 callsubr
          506 196 447 -32 callgsubr
          hintmask 10110111
          1304 -16 56 callsubr
          80 14 12 51 hvcurveto
          hintmask 01110111
          169 vlineto
          -14 -52 -81 20 callsubr
          -267 -57 191 170 hvcurveto
          647 78 hlineto
          264 -131 197 -272 -120 -133 -53 -134 -87 vhcurveto
          hintmask 10101111
          124 -82 -127 68 -144 hhcurveto
          -246 -215 -198 -337 -335 214 -199 246 141 127 66 120 82 hvcurveto
          hintmask 10110111
          -122 82 139 -64 202 hhcurveto
          -1025 534 rmoveto
          hintmask 10101111
          193 75 188 178 176 77 -188 -193 -191 -70 -189 -184 vhcurveto
          hintmask 10110111
          -186 -66 189 191 hvcurveto
          933 376 rmoveto
          156 60 -123 -115 hvcurveto
          -447 hlineto
          123 89 115 142 vhcurveto
          endchar
        </CharString>
        <CharString name="ogonek">
          -448 27 callsubr
          hstem
          142 169 vstem
          548 11 callsubr
          66 77 62 84 186 91 hvcurveto
          -38 24 -125 22 rlineto
          -199 -28 callgsubr
          endchar
        </CharString>
        <CharString name="ograve">
          66 176 0 111 82 callgsubr
        </CharString>
        <CharString name="ohungarumlaut">
          26 callgsubr
          17 884 -302 -85 callsubr
          901 1103 -81 callsubr
        </CharString>
        <CharString name="omacron">
          -13 callgsubr
          187 152 hstemhm
          88 208 28 542 29 -85 callsubr
          570 874 -37 callgsubr
        </CharString>
        <CharString name="one">
          -276 21 -21 1042 -20 hstem
          487 199 vstem
          128 840 rmoveto
          359 245 rlineto
          -1085 199 1360 -111 vlineto
          -447 -318 rlineto
          endchar
        </CharString>
        <CharString name="onehalf">
          -275 -185 8 856 859 hstemhm
          124 655 -365 171 hintmask 10100000
          124 -247 -47 callsubr
          hintmask 01010000
          -120 1251 -30 callsubr
        </CharString>
        <CharString name="onequarter">
          76 callgsubr
          859 hstemhm
          414 171 -78 172 hintmask 10010000
          54 -144 -21 callgsubr
          hintmask 01100000
          109 1199 -30 callsubr
        </CharString>
        <CharString name="onesuperior">
          -445 509 859 hstem
          306 171 vstem
          55 960 -30 callsubr
        </CharString>
        <CharString name="ordfeminine">
          -105 503 136 586 144 hstem
          109 180 390 171 vstem
          699 510 rmoveto
          151 844 hlineto
          9 -74 -61 6 -119 hhcurveto
          -231 -256 -136 -330 -296 197 -104 141 139 77 75 43 29 hvcurveto
          -205 18 rmoveto
          -80 -118 54 210 225 121 97 176 29 46 -4 -4 18 hvcurveto
          -456 vlineto
          -44 -23 -59 -78 -110 hhcurveto
          endchar
        </CharString>
        <CharString name="ordmasculine">
          -103 503 866 hstem
          103 815 vstem
          510 503 rmoveto
          226 182 151 281 283 -182 151 -226 -225 -182 -151 -283 -281 182 -151 225 hvcurveto
          728 vmoveto
          159 71 -140 -156 -154 -63 -140 -167 -166 -63 140 154 156 63 140 166 hvcurveto
          endchar
        </CharString>
        <CharString name="oslash">
          22 callgsubr
          -117 -21 899 154 -21 -20 hstemhm
          76 1047 -1035 67 callsubr
          hintmask 01011000
          996 1136 rmoveto
          -211 -260 127 -105 211 261 rlineto
          -856 -796 57 callsubr
          -236 127 -104 191 235 rlineto
          hintmask 10100110
          709 387 -102 callgsubr
          endchar
        </CharString>
        <CharString name="otilde">
          66 85 0 111 196 endchar
        </CharString>
        <CharString name="p">
          68 -379 -21 385 155 754 154 -16 -20 -24 callsubr
          492 68 callsubr
          hintmask 11011100
          350 40 callgsubr
          -180 -1432 200 386 hlineto
          -1 27 33 0 34 hhcurveto
          295 311 162 394 hvcurveto
          hintmask 11101100
          392 -254 115 -169 -153 -105 -91 -43 -31 vhcurveto
          246 -20 rmoveto
          98 160 -63 -290 -282 -152 -119 33 callsubr
          614 vlineto
          49 25 85 83 124 hhcurveto
          endchar
        </CharString>
        <CharString name="paragraph">
          68 1213 146 hstem
          500 156 218 49 vstem
          656 31 callgsubr
          1553 218 -1553 156 1700 -156 -1 -218 1 -156 vlineto
          -235 -190 -190 -235 -235 190 -190 235 hvcurveto
          -850 vlineto
          endchar
        </CharString>
        <CharString name="parenleft">
          75 callsubr
          109 579 vstem
          109 680 rmoveto
          -331 94 -291 277 -228 vhcurveto
          208 hlineto
          -239 186 -154 300 364 vvcurveto
          364 154 300 239 186 vhcurveto
          -208 hlineto
          -277 -228 -94 -291 -331 vvcurveto
          endchar
        </CharString>
        <CharString name="parenright">
          75 callsubr
          -48 579 vstem
          531 680 rmoveto
          331 -94 291 -277 228 vhcurveto
          -208 hlineto
          239 -186 154 -300 -364 vvcurveto
          -364 -154 -300 -239 -186 vhcurveto
          208 hlineto
          277 228 94 291 331 vvcurveto
          endchar
        </CharString>
        <CharString name="partialdiff">
          22 callgsubr
          625 162 265 170 hstem
          8 callsubr
          617 168 vstem
          1094 680 rmoveto
          227 -61 453 -563 -53 -104 -8 -11 -66 vhcurveto
          -184 vlineto
          13 42 128 20 53 hhcurveto
          336 120 -237 -206 hvcurveto
          -4 hlineto
          137 -77 -130 41 -139 hhcurveto
          -247 -220 -166 -301 -303 220 -171 265 186 149 94 157 81 hvcurveto
          60 117 24 153 175 vvcurveto
          -785 -222 rmoveto
          163 91 142 192 192 110 -124 -181 -134 -71 -186 -221 -199 -94 159 161 vhcurveto
          endchar
        </CharString>
        <CharString name="percent">
          578 10 callsubr
          90 954 -739 160 222 64 callsubr
          80 callgsubr
          hintmask 1001110111000000
          -52 callsubr
          1007 -679 rmoveto
          hintmask 1010110111000000
          -71 callsubr
          vhcurveto
          hintmask 1001110111000000
          0 callsubr
          hvcurveto
          hintmask 1010110111000000
          -160 -67 callgsubr
          hintmask 0100001000000000
          -895 31 callgsubr
          -11 callsubr
        </CharString>
        <CharString name="period">
          -617 -25 45 callgsubr
          vstem
          256 229 rmoveto
          -20 callgsubr
        </CharString>
        <CharString name="periodcentered">
          -616 596 45 callgsubr
          vstem
          256 850 rmoveto
          -20 callgsubr
        </CharString>
        <CharString name="perthousand">
          1263 10 callsubr
          92 954 -741 160 198 64 callsubr
          99 64 callsubr
          80 callgsubr
          hintmask 1001110101000000
          -52 callsubr
          1707 -679 rmoveto
          hintmask 1010000011000000
          -71 callsubr
          vhcurveto
          hintmask 1001110101000000
          0 callsubr
          hvcurveto
          hintmask 1010000011110000
          -724 hmoveto
          -52 callgsubr
          564 -67 callgsubr
          -724 -67 callgsubr
          hintmask 0100001000000000
          -869 31 callgsubr
          -11 callsubr
        </CharString>
        <CharString name="pi">
          237 -6 1038 hstem
          46 1179 vstem
          844 390 57 callsubr
          36 -205 273 22 24 3 3 26 vhcurveto
          22 callsubr
          -5 -17 -20 74 callgsubr
          -105 -47 8 callgsubr
          473 205 168 -1179 -168 140 -863 176 863 482 vlineto
          endchar
        </CharString>
        <CharString name="plus">
          66 519 70 callgsubr
          519 152 vstem
          -4 callgsubr
          endchar
        </CharString>
        <CharString name="plusminus">
          66 6 154 359 152 hstemhm
          127 943 -551 152 hintmask 01010000
          -4 callgsubr
          hintmask 10100000
          -392 -511 -1 callgsubr
          endchar
        </CharString>
        <CharString name="product">
          578 1224 168 hstem
          343 176 667 176 vstem
          203 1224 rmoveto
          140 75 callgsubr
          667 75 callgsubr
          140 168 -1299 hlineto
          endchar
        </CharString>
        <CharString name="q">
          68 -379 -21 385 154 754 155 -16 -20 hstemhm
          120 208 492 -32 callgsubr
          hintmask 11101100
          820 -126 rmoveto
          -274 200 vlineto
          hintmask 11011100
          1432 vlineto
          hintmask 11101100
          -73 callsubr
          106 91 43 31 hvcurveto
          -248 -72 callsubr
          endchar
        </CharString>
        <CharString name="question">
          -105 -24 240 248 155 593 188 hstemhm
          293 264 -218 -7 callgsubr
          -32 callgsubr
          hintmask 11101100
          339 341 rmoveto
          170 123 hlineto
          317 16 83 216 154 vvcurveto
          288 -237 262 -502 vhcurveto
          -188 vlineto
          266 -5 273 -85 -272 vvcurveto
          -126 -59 -105 -210 -38 -37 2 2 -26 vhcurveto
          hintmask 11110100
          85 -407 rmoveto
          -76 -55 -43 -77 -77 55 -43 76 76 57 43 77 77 -57 43 -76 hvcurveto
          endchar
        </CharString>
        <CharString name="questiondown">
          -104 -348 188 593 155 248 240 -24 callsubr
          152 264 -216 170 hintmask 00000000
          hintmask 11110100
          740 711 rmoveto
          -170 -123 hlineto
          -317 -16 -83 -216 -154 vvcurveto
          -288 237 -262 502 vhcurveto
          188 vlineto
          -266 5 -273 85 272 vvcurveto
          126 59 105 210 38 37 -2 -2 26 vhcurveto
          hintmask 11111000
          -85 407 rmoveto
          76 55 43 77 77 -55 43 -76 -76 -57 -43 -77 -77 57 -43 76 hvcurveto
          endchar
        </CharString>
        <CharString name="quotedbl">
          -275 988 542 hstemhm
          137 206 164 206 hintmask 11000000
          343 15 callsubr
          18 callgsubr
          hintmask 10100000
          396 542 18 callgsubr
          endchar
        </CharString>
        <CharString name="quotedblbase">
          -104 -340 50 callsubr
          hintmask 11000000
          86 -340 -78 callgsubr
          hintmask 10100000
          415 -160 -78 callgsubr
          endchar
        </CharString>
        <CharString name="quotedblleft">
          -105 1370 160 hstemhm
          170 193 222 193 hintmask 11000000
          519 15 callsubr
          -36 callsubr
          hintmask 10100000
          415 160 -36 callsubr
          endchar
        </CharString>
        <CharString name="quotedblright">
          -104 1020 50 callsubr
          hintmask 10100000
          501 1020 -78 callgsubr
          hintmask 11000000
          -415 -160 -78 callgsubr
          endchar
        </CharString>
        <CharString name="quoteleft">
          -616 1370 160 hstem
          109 193 vstem
          458 15 callsubr
          -36 callsubr
          endchar
        </CharString>
        <CharString name="quoteright">
          -616 1020 160 hstem
          265 193 vstem
          109 1020 -78 callgsubr
          endchar
        </CharString>
        <CharString name="quotesinglbase">
          -616 -341 160 hstem
          171 193 vstem
          15 -341 -78 callgsubr
          endchar
        </CharString>
        <CharString name="quotesingle">
          -616 988 542 hstem
          153 206 vstem
          359 15 callsubr
          18 callgsubr
          endchar
        </CharString>
        <CharString name="r">
          -275 21 -21 865 183 -16 -20 26 -20 hstemhm
          169 -32 callgsubr
          hintmask 11001000
          51 callsubr
          hintmask 10011000
          189 vlineto
          hintmask 11001000
          32 callsubr
          hintmask 10101000
          41 callgsubr
          hintmask 11001000
          50 33 101 93 160 hhcurveto
          endchar
        </CharString>
        <CharString name="racute">
          -275 -222 0 114 194 endchar
        </CharString>
        <CharString name="radical">
          233 682 168 648 -20 hstem
          100 1281 vstem
          100 682 rmoveto
          225 hlineto
          337 -885 rlineto
          169 hlineto
          550 1701 rlineto
          -183 hlineto
          -453 -1472 -301 824 rlineto
          -344 hlineto
          endchar
        </CharString>
        <CharString name="rcaron">
          -275 -135 0 114 207 endchar
        </CharString>
        <CharString name="rcommaaccent">
          -275 12 callgsubr
          865 183 -16 -20 26 -20 hstemhm
          169 200 -177 170 hintmask 00000000
          hintmask 01100100
          51 callsubr
          hintmask 01001100
          189 vlineto
          hintmask 01100100
          32 callsubr
          hintmask 01010100
          41 callgsubr
          hintmask 01100100
          50 33 101 93 160 hhcurveto
          hintmask 10000010
          -590 -1375 -95 callgsubr
        </CharString>
        <CharString name="registered">
          741 -227 144 251 141 166 23 388 134 198 144 hstem
          136 152 337 149 357 152 298 -64 callsubr
          1011 -399 rmoveto
          143 vlineto
          -2 -13 -24 0 -12 hhcurveto
          -127 -71 71 99 -38 hvcurveto
          182 21 87 96 149 vvcurveto
          137 -79 138 -314 vhcurveto
          -265 -850 149 305 93 hlineto
          -152 41 112 -155 245 hhcurveto
          -375 718 rmoveto
          164 77 -45 -96 -116 -97 -24 -144 hvcurveto
          -116 281 hlineto
          endchar
        </CharString>
        <CharString name="ring">
          -277 1221 121 293 123 hstem
          148 138 277 138 vstem
          148 1489 -75 callsubr
          138 -2 rmoveto
          82 61 66 77 78 61 -66 -82 -81 -61 -64 -78 -77 -61 64 81 vhcurveto
          endchar
        </CharString>
        <CharString name="ring.cap">
          -446 1503 66 callgsubr
          hstem
          65 65 callsubr
          vstem
          65 1771 -79 callgsubr
        </CharString>
        <CharString name="s">
          -104 -16 6 callgsubr
          320 208 hintmask 11011000
          -68 callgsubr
          hintmask 10111000
          171 vlineto
          hintmask 11011000
          -97 callsubr
          endchar
        </CharString>
        <CharString name="sacute">
          59 callsubr
          242 367 52 callsubr
          73 466 -219 -76 callgsubr
          274 1054 -96 callsubr
        </CharString>
        <CharString name="scaron">
          -104 18 0 115 207 endchar
        </CharString>
        <CharString name="scedilla">
          -104 33 callgsubr
          75 6 callgsubr
          -4 77 callsubr
          -72 208 hintmask 0011010010000000
          -68 callgsubr
          hintmask 0010110010000000
          171 vlineto
          hintmask 0011010010000000
          -97 callsubr
          hintmask 1100001100000000
          -269 -786 -74 callgsubr
        </CharString>
        <CharString name="scircumflex">
          59 callsubr
          210 422 52 callsubr
          -163 648 -165 -76 callgsubr
          -104 1077 -101 callsubr
        </CharString>
        <CharString name="scommaaccent">
          -104 -7 callsubr
          361 6 callgsubr
          58 170 81 callgsubr
          hintmask 01101010
          -68 callgsubr
          hintmask 01011010
          171 vlineto
          hintmask 01101010
          -97 callsubr
          hintmask 10000100
          -326 -1077 -95 callgsubr
        </CharString>
        <CharString name="section">
          -105 -224 176 1396 176 hstemhm
          70 184 -96 192 320 192 -96 184 hintmask 00000000
          hintmask 11100100
          520 266 rmoveto
          hintmask 11101000
          94 -35 56 -62 -69 vvcurveto
          -70 -23 -78 -224 -61 -60 5 18 -107 vhcurveto
          -183 vlineto
          -13 100 52 -3 70 hhcurveto
          302 143 145 171 131 -82 72 -111 61 hvcurveto
          hintmask 11010100
          166 61 115 106 126 vvcurveto
          168 -106 84 -181 70 vhcurveto
          -163 63 rlineto
          -93 36 -57 52 78 vvcurveto
          53 23 95 224 61 60 -5 -18 107 vhcurveto
          183 vlineto
          13 -100 -52 3 -70 hhcurveto
          -302 -143 -145 -171 -131 81 -71 110 -61 hvcurveto
          hintmask 11100100
          -165 -63 -114 -106 -125 vvcurveto
          -168 106 -84 181 -70 vhcurveto
          172 520 rmoveto
          205 -54 32 -81 -65 vvcurveto
          -82 -80 -98 -199 -17 vhcurveto
          -193 45 -40 89 65 vvcurveto
          81 78 99 197 18 vhcurveto
          endchar
        </CharString>
        <CharString name="semicolon">
          -615 -388 165 1021 254 hstemhm
          116 280 -216 193 hintmask 01100000
          255 1052 -67 callsubr
          hintmask 10010000
          -231 -1440 4 callsubr
        </CharString>
        <CharString name="seven">
          21 -21 1183 176 hstem
          105 1022 vstem
          105 1359 rmoveto
          -176 757 vlineto
          -621 -1183 rlineto
          230 hlineto
          656 1279 rlineto
          80 vlineto
          endchar
        </CharString>
        <CharString name="six">
          237 -16 152 560 154 335 175 hstem
          152 200 671 194 vstem
          853 1360 rmoveto
          -417 -284 -266 -413 hvcurveto
          -61 vlineto
          -385 183 -251 359 252 271 138 302 279 -193 147 -281 -157 -144 -59 -67 -90 vhcurveto
          267 158 194 343 99 100 -17 -13 42 vhcurveto
          194 vlineto
          11 -58 -109 0 -74 hhcurveto
          -151 -1224 rmoveto
          -247 -101 205 232 hvcurveto
          51 52 139 72 152 hhcurveto
          200 126 -110 -172 -178 -142 -100 -179 hvcurveto
          endchar
        </CharString>
        <CharString name="slash">
          -274 36 callsubr
          12 826 vstem
          190 -170 rmoveto
          648 15 callsubr
          rlineto
          -178 hlineto
          -648 -1530 rlineto
          endchar
        </CharString>
        <CharString name="space">
          -446 endchar
        </CharString>
        <CharString name="sterling">
          0 170 358 152 380 170 hstem
          336 192 vstem
          82 680 rmoveto
          -152 254 vlineto
          -252 -135 -106 -145 vhcurveto
          -170 1004 170 -703 4 vlineto
          77 65 79 123 13 166 rrcurveto
          342 152 -340 44 hlineto
          167 24 169 275 75 75 -9 -10 52 vhcurveto
          -1 179 rlineto
          6 -54 -67 4 -80 hhcurveto
          -453 -38 -339 -171 hvcurveto
          -40 vlineto
          endchar
        </CharString>
        <CharString name="summation">
          68 -340 155 1390 155 hstem
          85 1019 vstem
          810 510 rmoveto
          -494 695 rlineto
          788 155 -1019 -114 hlineto
          519 -736 -519 -736 rlineto
          -114 1019 155 -788 vlineto
          endchar
        </CharString>
        <CharString name="t">
          53 callsubr
          733 153 hstem
          223 24 callsubr
          223 390 -77 callgsubr
          endchar
        </CharString>
        <CharString name="tbar">
          53 callsubr
          385 136 212 153 hstem
          223 24 callsubr
          704 667 rmoveto
          -281 212 280 153 -280 256 -152 hlineto
          -2 callsubr
          -212 -149 -136 149 -141 vlineto
          -191 77 -205 282 22 69 1 7 25 vhcurveto
          160 vlineto
          -13 -25 -56 74 callgsubr
          -112 -66 8 callgsubr
          140 281 vlineto
          endchar
        </CharString>
        <CharString name="tcaron">
          53 callsubr
          733 153 119 157 hstem
          223 200 200 172 vstem
          511 1151 -68 callsubr
          -288 -918 -77 callgsubr
          endchar
        </CharString>
        <CharString name="tcommaaccent">
          -275 -7 callsubr
          371 152 733 153 hstemhm
          223 200 -41 76 callsubr
          223 390 -77 callgsubr
          hintmask 10001000
          40 -1389 -95 callgsubr
        </CharString>
        <CharString name="thorn">
          64 -15 154 758 154 447 -20 hstem
          168 200 494 208 vstem
          370 1498 rmoveto
          -202 -1883 200 371 hlineto
          -1 27 33 0 34 40 callsubr
          109 -169 -151 -93 -83 -35 -31 hvcurveto
          235 -36 rmoveto
          100 157 -66 26 callsubr
          618 63 callsubr
        </CharString>
        <CharString name="three">
          -9 177 1016 176 hstem
          877 209 vstem
          498 168 rmoveto
          -149 -150 19 19 -58 hvcurveto
          -189 vlineto
          -16 66 183 -10 108 hhcurveto
          422 166 186 228 180 -89 186 -377 24 hvcurveto
          3 vlineto
          419 482 rlineto
          80 -869 -176 545 vlineto
          -399 -477 rlineto
          -80 100 vlineto
          351 110 -80 -142 -149 -117 -88 -262 hvcurveto
          endchar
        </CharString>
        <CharString name="threequarters">
          76 callgsubr
          60 callsubr
          hstemhm
          507 172 -77 179 hintmask 00000000
          hintmask 11011000
          362 823 -46 callsubr
          hintmask 11110100
          51 callgsubr
          -308 -967 -21 callgsubr
          endchar
        </CharString>
        <CharString name="threesuperior">
          -275 510 60 callsubr
          hstem
          596 179 vstem
          356 654 -46 callsubr
          51 callgsubr
          endchar
        </CharString>
        <CharString name="tilde">
          -107 1190 -18 callsubr
          94 13 callgsubr
          hintmask 00000000
          hintmask 01110000
          774 1451 -49 callgsubr
        </CharString>
        <CharString name="tilde.cap">
          -446 1529 -18 callsubr
          -75 13 callgsubr
          hintmask 00000000
          hintmask 01110000
          605 1790 -49 callgsubr
        </CharString>
        <CharString name="trademark">
          749 1208 70 callgsubr
          393 171 368 172 455 172 vstem
          1331 774 rmoveto
          167 190 61 80 rlineto
          -534 172 851 -104 vlineto
          -296 -370 -295 370 rlineto
          -104 -851 172 534 hlineto
          61 -80 rlineto
          -352 244 rmoveto
          152 -668 -152 248 -698 171 698 vlineto
          endchar
        </CharString>
        <CharString name="two">
          0 1360 hstem
          136 916 vstem
          481 1360 rmoveto
          -141 -104 -17 -11 -66 hvcurveto
          -192 vlineto
          13 42 128 29 141 hhcurveto
          326 45 -125 -86 -137 -82 -95 -211 -218 hvcurveto
          -423 -429 rlineto
          -92 915 176 -585 vlineto
          260 266 rlineto
          204 215 122 145 179 vvcurveto
          129 -63 250 -508 vhcurveto
          endchar
        </CharString>
        <CharString name="twosuperior">
          -275 664 8 hstem
          94 655 vstem
          94 602 -47 callsubr
          endchar
        </CharString>
        <CharString name="u">
          -63 callgsubr
          endchar
        </CharString>
        <CharString name="uacute">
          -16 172 -135 -22 callgsubr
          242 -5 callsubr
          152 200 156 466 -146 200 hintmask 10101010
          -34 callgsubr
          hintmask 01101010
          6 callsubr
          hintmask 10101010
          -14 callsubr
          hintmask 00010100
          622 589 -96 callsubr
        </CharString>
        <CharString name="ubreve">
          80 callsubr
          198 endchar
        </CharString>
        <CharString name="ucircumflex">
          80 callsubr
          71 callsubr
        </CharString>
        <CharString name="udieresis">
          -63 callgsubr
          hintmask 00000000
          479 406 -105 callgsubr
        </CharString>
        <CharString name="ugrave">
          177 0 117 82 callgsubr
        </CharString>
        <CharString name="uhungarumlaut">
          80 callsubr
          205 endchar
        </CharString>
        <CharString name="umacron">
          256 0 117 197 endchar
        </CharString>
        <CharString name="underscore">
          -340 70 callgsubr
          -10 1215 vstem
          1205 -188 rmoveto
          -1215 -152 1215 hlineto
          endchar
        </CharString>
        <CharString name="uni0001">
          16 callgsubr
        </CharString>
        <CharString name="uni0002">
          16 callgsubr
        </CharString>
        <CharString name="uni0003">
          16 callgsubr
        </CharString>
        <CharString name="uni0004">
          16 callgsubr
        </CharString>
        <CharString name="uni0005">
          16 callgsubr
        </CharString>
        <CharString name="uni0006">
          16 callgsubr
        </CharString>
        <CharString name="uni0007">
          16 callgsubr
        </CharString>
        <CharString name="uni0008">
          16 callgsubr
        </CharString>
        <CharString name="uni0009">
          16 callgsubr
        </CharString>
        <CharString name="uni0010">
          16 callgsubr
        </CharString>
        <CharString name="uni0011">
          16 callgsubr
        </CharString>
        <CharString name="uni0012">
          16 callgsubr
        </CharString>
        <CharString name="uni0013">
          16 callgsubr
        </CharString>
        <CharString name="uni0014">
          16 callgsubr
        </CharString>
        <CharString name="uni0015">
          16 callgsubr
        </CharString>
        <CharString name="uni0016">
          16 callgsubr
        </CharString>
        <CharString name="uni0017">
          16 callgsubr
        </CharString>
        <CharString name="uni0018">
          16 callgsubr
        </CharString>
        <CharString name="uni0019">
          16 callgsubr
        </CharString>
        <CharString name="uni00AD">
          101 endchar
        </CharString>
        <CharString name="uni1E02">
          52 callgsubr
          166 224 -24 callsubr
          17 247 161 208 -120 68 callsubr
          hintmask 11101010
          -6 callsubr
          hintmask 11101001
          -2 callgsubr
          hintmask 11101010
          -16 callgsubr
          hintmask 11101001
          -190 481 hlineto
          hintmask 00010100
          138 1149 rmoveto
          -94 callsubr
        </CharString>
        <CharString name="uni1E03">
          64 446 0 98 58 callgsubr
        </CharString>
        <CharString name="uni1E0A">
          72 callsubr
          167 224 -54 callgsubr
          162 247 282 -50 callgsubr
          283 552 rmoveto
          -94 callsubr
        </CharString>
        <CharString name="uni1E0B">
          66 222 0 100 58 callgsubr
        </CharString>
        <CharString name="uni1E1E">
          21 73 callgsubr
          166 224 -54 callgsubr
          150 247 hintmask 11101000
          -3 callgsubr
          hintmask 00010100
          -476 564 rmoveto
          -94 callsubr
        </CharString>
        <CharString name="uni1E1F">
          -444 58 391 102 58 callgsubr
        </CharString>
        <CharString name="uni1E40">
          408 -77 callsubr
          186 56 callgsubr
          145 200 300 247 299 1 callsubr
          -38 callsubr
          hintmask 00101000
          -3 1225 rmoveto
          -94 callsubr
        </CharString>
        <CharString name="uni1E41">
          750 765 0 109 58 callgsubr
        </CharString>
        <CharString name="uni1E56">
          21 -21 510 64 callgsubr
          166 224 -24 callsubr
          69 247 221 208 hintmask 11101010
          -45 callgsubr
          hintmask 00010100
          190 550 rmoveto
          -94 callsubr
        </CharString>
        <CharString name="uni1E57">
          68 425 0 112 58 callgsubr
        </CharString>
        <CharString name="uni1E60">
          -10 13 callsubr
          156 56 callgsubr
          47 callgsubr
          177 247 117 -100 callsubr
          144 1792 rmoveto
          -94 callsubr
        </CharString>
        <CharString name="uni1E61">
          -104 273 0 115 58 callgsubr
        </CharString>
        <CharString name="uni1E6A">
          21 -21 15 callgsubr
          176 37 callsubr
          472 247 -224 200 hintmask 11101000
          -53 callgsubr
          -102 566 rmoveto
          hintmask 11110000
          -94 callsubr
        </CharString>
        <CharString name="uni1E6B">
          -275 99 219 116 58 callgsubr
        </CharString>
        <CharString name="uogonek">
          467 -10 117 206 endchar
        </CharString>
        <CharString name="uring">
          170 0 117 202 endchar
        </CharString>
        <CharString name="utilde">
          80 callsubr
          196 endchar
        </CharString>
        <CharString name="v">
          -107 68 callgsubr
          14 992 vstem
          229 40 callgsubr
          -215 hlineto
          396 -1032 rlineto
          201 hlineto
          395 1032 rlineto
          -214 hlineto
          -282 -837 rlineto
          endchar
        </CharString>
        <CharString name="w">
          579 68 callgsubr
          16 1675 vstem
          -79 callsubr
          endchar
        </CharString>
        <CharString name="wacute">
          579 267 -23 119 194 endchar
        </CharString>
        <CharString name="wcircumflex">
          579 -31 callgsubr
          187 14 callsubr
          16 1675 -1151 648 hintmask 11010000
          -79 callsubr
          hintmask 00101000
          -827 589 -101 callsubr
        </CharString>
        <CharString name="wdieresis">
          579 443 -23 119 200 endchar
        </CharString>
        <CharString name="wgrave">
          579 -31 callgsubr
          219 -5 callsubr
          16 1675 -1154 466 hintmask 11010000
          -79 callsubr
          hintmask 00101000
          -866 199 -76 callsubr
        </CharString>
        <CharString name="x">
          -103 68 callgsubr
          21 983 vstem
          248 hmoveto
          258 376 263 -376 rlineto
          226 hlineto
          -375 519 384 513 rlineto
          -224 hlineto
          -263 -373 -246 373 rlineto
          -227 hlineto
          355 -514 -378 -518 rlineto
          endchar
        </CharString>
        <CharString name="y">
          -70 callgsubr
          endchar
        </CharString>
        <CharString name="yacute">
          -103 -35 0 121 194 endchar
        </CharString>
        <CharString name="ycircumflex">
          -103 52 0 121 71 callsubr
        </CharString>
        <CharString name="ydieresis">
          -70 callgsubr
          hintmask 00000000
          632 1702 -105 callgsubr
        </CharString>
        <CharString name="yen">
          0 324 -154 154 162 49 callgsubr
          499 192 hintmask 01110000
          122 640 rmoveto
          -154 377 -162 -377 -154 377 vlineto
          hintmask 10110000
          -170 192 vlineto
          hintmask 01110000
          170 377 154 -377 162 377 154 -377 vlineto
          515 592 rlineto
          -220 hlineto
          -391 -434 -388 434 rlineto
          -223 hlineto
          515 -592 rlineto
          endchar
        </CharString>
        <CharString name="ygrave">
          -103 143 0 121 82 callgsubr
        </CharString>
        <CharString name="z">
          74 callsubr
          hstem
          89 878 vstem
          -17 callsubr
          endchar
        </CharString>
        <CharString name="zacute">
          -103 -48 0 122 194 endchar
        </CharString>
        <CharString name="zcaron">
          74 callsubr
          190 14 callsubr
          89 878 -742 648 hintmask 11010000
          -17 callsubr
          hintmask 00101000
          -396 190 -91 callgsubr
        </CharString>
        <CharString name="zdotaccent">
          -103 294 0 122 58 callgsubr
        </CharString>
        <CharString name="zero">
          237 -16 152 1072 70 callgsubr
          124 210 702 210 vstem
          1246 670 rmoveto
          443 -218 247 -338 -344 -222 -247 -443 -443 222 -243 344 338 218 243 443 vhcurveto
          -912 1 rmoveto
          293 87 244 269 270 76 -244 -295 -293 -76 -240 -270 -277 -79 240 295 vhcurveto
          endchar
        </CharString>
      <CharString index="0">
        -69 -52 -38 -74 -72 52 -40 69 72 54 40 72 74 -54 38 -72 hvcurveto
        return
      </CharString>
      <CharString index="1">
        1427 694 -107 callsubr
        return
      </CharString>
      <CharString index="2">
        -105 callsubr
        -465 hmoveto
        -94 callsubr
      </CharString>
      <CharString index="3">
        rmoveto
        307 221 162 413 hvcurveto
        833 -200 -833 vlineto
        -251 -97 -152 -231 -232 -97 152 251 vhcurveto
        833 -200 -833 vlineto
        -413 221 -162 308 vhcurveto
        return
      </CharString>
      <CharString index="4">
        683 -16 -104 callgsubr
        return
      </CharString>
      <CharString index="5">
        rmoveto
        337 -234 198 -267 -271 -243 -198 -337 -335 242 -199 271 267 235 199 335 vhcurveto
        -807 hmoveto
        193 93 188 213 204 89 -188 -193 -191 -82 -189 -212 -221 -84 189 191 vhcurveto
        return
      </CharString>
      <CharString index="6">
        1130 hmoveto
        -102 callsubr
        return
      </CharString>
      <CharString index="7">
        1103 518 -102 callgsubr
        return
      </CharString>
      <CharString index="8">
        825 -10 rmoveto
        82 135 8 10 58 hvcurveto
        192 vlineto
        -16 -66 -95 -8 -96 hhcurveto
        -372 -171 228 -66 callsubr
        97 87 -9 -13 42 hvcurveto
        191 vlineto
        10 -58 -80 4 -98 hhcurveto
        -382 -66 callgsubr
        -247 425 hvcurveto
        return
      </CharString>
      <CharString index="9">
        rmoveto
        -181 150 -146 185 185 150 146 181 49 callsubr
        hlineto
        -109 -78 -74 -97 -97 -78 74 109 vhcurveto
        endchar
      </CharString>
      <CharString index="10">
        1403 410 rmoveto
        -43 -180 -45 180 -279 982 rlineto
        -192 hlineto
        -282 -982 -44 -173 -39 173 -269 982 28 callsubr
        418 -57 callgsubr
        69 callsubr
        290 980 32 125 33 -125 293 -980 69 callsubr
        422 -74 callsubr
        rlineto
        -200 hlineto
        return
      </CharString>
      <CharString index="11">
        210 79 60 233 hvcurveto
        114 -170 -114 vlineto
        -123 -44 -37 -75 vhcurveto
        endchar
      </CharString>
      <CharString index="12">
        rmoveto
        -96 callgsubr
      </CharString>
      <CharString index="13">
        -17 -4 -32 -1 -16 1 -167 5 -138 153 -55 174 rrcurveto
        216 40 162 133 260 vvcurveto
        -12 callsubr
        vhcurveto
        -395 -60 callsubr
        510 177 hlineto
        -255 60 189 -255 321 hhcurveto
        -548 1232 -81 callgsubr
        return
      </CharString>
      <CharString index="14">
        1053 -74 callsubr
        rmoveto
        -899 -57 callgsubr
        899 176 -699 464 529 168 -529 410 699 hlineto
        return
      </CharString>
      <CharString index="15">
        hintmask 11010000
        -99 callgsubr
        hintmask 00101000
        return
      </CharString>
      <CharString index="16">
        rmoveto
        -92 callsubr
      </CharString>
      <CharString index="17">
        -73 callsubr
        105 91 43 31 hvcurveto
        -247 -72 callsubr
        return
      </CharString>
      <CharString index="18">
        hintmask 11101000
        -101 callgsubr
        return
      </CharString>
      <CharString index="19">
        1162 hmoveto
        194 vlineto
        -94 callgsubr
        return
      </CharString>
      <CharString index="20">
        -25 callgsubr
        22 25 3 3 25 vhcurveto
        22 callsubr
        -55 callgsubr
        1097 -200 vlineto
        return
      </CharString>
      <CharString index="21">
        154 1391 rmoveto
        -1391 -62 callsubr
        -13 -161 rmoveto
        -58 callsubr
        1070 hlineto
        return
      </CharString>
      <CharString index="22">
        -80 -59 -46 -81 -82 59 -45 80 81 60 45 82 81 -60 46 -81 hvcurveto
        return
      </CharString>
      <CharString index="23">
        hlineto
        -232 -367 rlineto
        return
      </CharString>
      <CharString index="24">
        705 608 rmoveto
        495 784 rlineto
        -216 hlineto
        -380 -622 -388 622 rlineto
        -216 hlineto
        497 -786 rlineto
        -606 208 vlineto
        return
      </CharString>
      <CharString index="25">
        1269 -15 56 callsubr
        100 -48 callsubr
        -101 20 callsubr
        -251 -63 169 192 hvcurveto
        655 78 hlineto
        284 -133 176 -258 -108 -131 -48 -92 -89 vhcurveto
        107 -66 -148 33 -146 hhcurveto
        -148 -132 -21 -16 -64 hvcurveto
        -159 vlineto
        14 66 64 23 191 hhcurveto
        179 80 -75 -113 hvcurveto
        -44 -116 vlineto
        -280 -280 -84 -250 -257 220 -81 134 195 125 67 133 86 hvcurveto
        -128 80 134 -72 203 hhcurveto
        return
      </CharString>
      <CharString index="26">
        rmoveto
        242 96 -112 -162 -196 81 callsubr
        -240 hvcurveto
        -182 562 hlineto
        return
      </CharString>
      <CharString index="27">
        125 -74 callsubr
        rmoveto
        -174 546 vlineto
        141 5 -721 -1133 rlineto
        -90 994 176 -570 vlineto
        -153 -4 723 1130 rlineto
        90 vlineto
        return
      </CharString>
      <CharString index="28">
        -75 callsubr
        128 hmoveto
        87 66 70 82 83 66 -70 -87 -87 -66 -69 -83 -82 -66 69 87 vhcurveto
        endchar
      </CharString>
      <CharString index="29">
        -41 callgsubr
        122 -193 -122 vlineto
        -149 -35 -79 -121 vhcurveto
        return
      </CharString>
      <CharString index="30">
        57 callsubr
        77 -205 282 30 93 1 7 33 vhcurveto
        160 vlineto
        -13 -37 -76 -3 -24 hhcurveto
        -112 -66 8 callgsubr
        488 320 153 -320 256 -152 vlineto
        -2 callsubr
        vlineto
        return
      </CharString>
      <CharString index="31">
        208 hintmask 11001010
        -68 callgsubr
        hintmask 10101010
        171 vlineto
        hintmask 11001010
        -97 callsubr
        hintmask 00010100
        return
      </CharString>
      <CharString index="32">
        7 callgsubr
        55 callgsubr
        492 -32 callgsubr
        hintmask 01011100
        34 callsubr
        hintmask 10101100
        -90 callgsubr
        return
      </CharString>
      <CharString index="33">
        rmoveto
        120 hlineto
        80 32 -17 -39 -59 -50 -37 -111 -30 -37 5 4 -20 hvcurveto
        -139 vlineto
        -6 28 45 -2 28 hhcurveto
        169 142 94 145 123 -88 56 -130 hvcurveto
        -34 175 -144 hlineto
        endchar
      </CharString>
      <CharString index="34">
        208 hintmask 11101010
        -88 callgsubr
        hintmask 00010100
        return
      </CharString>
      <CharString index="35">
        -10 14 callgsubr
        38 callsubr
        81 callgsubr
        116 648 -92 callgsubr
        -85 return
      </CharString>
      <CharString index="36">
        rmoveto
        -226 -84 callgsubr
        170 hlineto
        return
      </CharString>
      <CharString index="37">
        -103 12 callsubr
        1442 -20 hstemhm
        51 989 hintmask 10110000
        165 -264 rmoveto
        -16 -20 3 5 -17 hvcurveto
        hintmask 01110000
        -154 vlineto
        hintmask 10110000
        -3 25 25 -3 22 hhcurveto
        274 105 144 145 53 hvcurveto
        424 1159 rlineto
        -211 hlineto
        -267 -822 -298 822 rlineto
        -213 hlineto
        424 -1056 rlineto
        -134 -57 -73 -106 -180 hhcurveto
        return
      </CharString>
      <CharString index="38">
        -21 -74 callsubr
        -20 return
      </CharString>
      <CharString index="39">
        485 638 rmoveto
        -81 43 -37 32 49 vvcurveto
        50 24 72 233 58 66 -5 -18 102 vhcurveto
        return
      </CharString>
      <CharString index="40">
        hmoveto
        -134 -56 -77 -94 -97 -58 77 134 130 58 82 97 94 56 -82 -130 vhcurveto
        return
      </CharString>
      <CharString index="41">
        -358 -219 -473 -473 308 return
      </CharString>
      <CharString index="42">
        1 callsubr
        -98 callsubr
        hintmask 00101000
        return
      </CharString>
      <CharString index="43">
        -92 -35 callsubr
        43 40 4 18 47 vhcurveto
        return
      </CharString>
      <CharString index="44">
        -16 172 -135 -22 callgsubr
        hstemhm
        152 200 476 200 hintmask 10111000
        -34 callgsubr
        hintmask 01111000
        6 callsubr
        hintmask 10111000
        -14 callsubr
        return
      </CharString>
      <CharString index="45">
        200 hintmask 11001000
        -80 callsubr
        hintmask 00110000
        return
      </CharString>
      <CharString index="46">
        237 21 -40 callsubr
        return
      </CharString>
      <CharString index="47">
        176 464 -44 callsubr
        return
      </CharString>
      <CharString index="48">
        -107 callsubr
        endchar
      </CharString>
      <CharString index="49">
        -200 -60 callsubr
        return
      </CharString>
      <CharString index="50">
        -1392 return
      </CharString>
      <CharString index="51">
        886 -68 callsubr
        return
      </CharString>
      <CharString index="52">
        -5 -17 -20 74 callgsubr
        -112 -50 8 callgsubr
        return
      </CharString>
      <CharString index="53">
        hstemhm
        -63 callsubr
        return
      </CharString>
      <CharString index="54">
        1114 15 callgsubr
        rmoveto
        1 callgsubr
        -1216 200 15 callgsubr
        vlineto
        return
      </CharString>
      <CharString index="55">
        -71 callsubr
        0 callsubr
        vhcurveto
        return
      </CharString>
      <CharString index="56">
        -125 -64 callgsubr
        return
      </CharString>
      <CharString index="57">
        205 hintmask 11010100
        -86 callgsubr
        hintmask 00101000
        return
      </CharString>
      <CharString index="58">
        rmoveto
        hintmask 11110000
        -54 callsubr
        hintmask 01110000
        -91 callsubr
        hintmask 11110000
        -78 callsubr
      </CharString>
      <CharString index="59">
        -24 callgsubr
        238 154 return
      </CharString>
      <CharString index="60">
        408 -16 168 1088 168 return
      </CharString>
      <CharString index="61">
        rmoveto
        -73 -55 -41 -77 -76 55 -42 73 76 56 42 76 return
      </CharString>
      <CharString index="62">
        591 510 -15 callgsubr
        -395 -60 callsubr
        510 hlineto
        199 722 -81 callgsubr
        return
      </CharString>
      <CharString index="63">
        543 -252 rmoveto
        -84 -105 18 16 -37 hvcurveto
        -178 vlineto
        -16 51 106 -4 71 hhcurveto
        288 187 106 360 hvcurveto
        return
      </CharString>
      <CharString index="64">
        -186 -50 -59 -112 -16 -20 3 5 -17 vhcurveto
        return
      </CharString>
      <CharString index="65">
        -103 -16 -48 callgsubr
        return
      </CharString>
      <CharString index="66">
        rmoveto
        264 85 141 247 hvcurveto
        return
      </CharString>
      <CharString index="67">
        -46 callgsubr
        77 -56 41 -76 hvcurveto
        return
      </CharString>
      <CharString index="68">
        198 hintmask 11010100
        -87 callsubr
        hintmask 00101000
        return
      </CharString>
      <CharString index="69">
        -41 callsubr
        -85 -46 51 66 return
      </CharString>
      <CharString index="70">
        rmoveto
        -542 -152 542 hlineto
        endchar
      </CharString>
      <CharString index="71">
        805 hmoveto
        244 hlineto
        -468 564 445 468 rlineto
        -238 hlineto
        -418 -462 rlineto
        return
      </CharString>
      <CharString index="72">
        rmoveto
        -200 -8 callsubr
        hlineto
        return
      </CharString>
      <CharString index="73">
        152 40 callgsubr
        -574 vlineto
        -351 101 -123 250 92 131 37 88 104 vhcurveto
        return
      </CharString>
      <CharString index="74">
        -273 rlineto
        -196 vlineto
        611 411 rlineto
        118 vlineto
        -611 402 rlineto
        -196 vlineto
        return
      </CharString>
      <CharString index="75">
        200 hintmask 00000000
        return
      </CharString>
      <CharString index="76">
        21 -22 callgsubr
        return
      </CharString>
      <CharString index="77">
        198 390 -87 callgsubr
        return
      </CharString>
      <CharString index="78">
        -618 -7 callsubr
        70 callsubr
        170 vstem
        51 -510 -95 callgsubr
      </CharString>
      <CharString index="79">
        -109 -55 -51 callgsubr
        return
      </CharString>
      <CharString index="80">
        -3 40 40 -2 37 hhcurveto
        431 189 234 480 hvcurveto
        688 -713 vlineto
        return
      </CharString>
      <CharString index="81">
        -47 callgsubr
        122 return
      </CharString>
      <CharString index="82">
        57 callsubr
        61 -205 282 return
      </CharString>
      <CharString index="83">
        164 361 147 return
      </CharString>
      <CharString index="84">
        9 -51 -78 1 -71 hhcurveto
        -291 -288 -168 -352 -348 218 -196 341 71 106 3 16 51 hvcurveto
        179 vlineto
        -16 -37 -105 -18 -84 hhcurveto
        return
      </CharString>
      <CharString index="85">
        -21 1032 -20 return
      </CharString>
      <CharString index="86">
        rmoveto
        453 -197 172 197 104 137 -104 177 -172 -177 -228 hlineto
        319 517 rlineto
        -206 hlineto
        -338 -579 rlineto
        return
      </CharString>
      <CharString index="87">
        -85 callgsubr
        endchar
      </CharString>
      <CharString index="88">
        -61 callsubr
        138 return
      </CharString>
      <CharString index="89">
        -26 callgsubr
        367 3 callgsubr
        return
      </CharString>
      <CharString index="90">
        172 hintmask 01001000
        510 -56 callgsubr
        hintmask 10110000
        return
      </CharString>
      <CharString index="91">
        186 72 -92 -128 -168 -113 -67 -123 hvcurveto
        32 -152 rmoveto
        213 79 -102 -141 -161 -150 -77 -173 hvcurveto
        return
      </CharString>
      <CharString index="92">
        rmoveto
        284 240 129 316 -12 callsubr
        hvcurveto
        return
      </CharString>
      <CharString index="93">
        55 63 86 46 116 hhcurveto
        144 87 43 callsubr
        return
      </CharString>
      <CharString index="94">
        22 callgsubr
        761 154 return
      </CharString>
      <CharString index="95">
        vlineto
        -47 -25 -81 -85 -129 hhcurveto
        return
      </CharString>
      <CharString index="96">
        1897 -96 callsubr
      </CharString>
      <CharString index="97">
        15 callsubr
        -76 callsubr
      </CharString>
      <CharString index="98">
        2 -29 -30 2 -36 -56 callsubr
        -110 29 callgsubr
        108 92 43 31 hvcurveto
        return
      </CharString>
      <CharString index="99">
        160 -22 callsubr
        return
      </CharString>
      <CharString index="100">
        170 200 return
      </CharString>
      <CharString index="101">
        18 callsubr
        366 -152 -366 vlineto
        -300 24 rlineto
        -168 vlineto
        300 24 rlineto
        return
      </CharString>
      <CharString index="102">
        66 -416 164 237 154 755 154 -16 -20 return
      </CharString>
      <CharString index="103">
        97 671 rmoveto
        -152 422 -429 152 429 429 152 -429 421 -152 -421 vlineto
        return
      </CharString>
      <CharString index="104">
        1101 -74 callsubr
        rmoveto
        -947 -60 callsubr
        640 577 168 -577 410 747 hlineto
        return
      </CharString>
      <CharString index="105">
        310 221 134 256 109 -52 165 -223 63 hvcurveto
        -446 58 rmoveto
        455 167 vlineto
        return
      </CharString>
      <CharString index="106">
        rmoveto
        -154 943 22 callsubr
        return
      </CharString>
      <CharString index="107">
        -77 callsubr
        158 return
      </CharString>
      <CharString index="108">
        176 -1038 -176 419 return
      </CharString>
      <CharString index="109">
        152 -125 -21 return
      </CharString>
      <CharString index="110">
        hstemhm
        8 callsubr
        return
      </CharString>
      <CharString index="111">
        670 148 rmoveto
        -259 -94 180 200 190 104 169 269 84 77 -15 -12 37 hvcurveto
        return
      </CharString>
      <CharString index="112">
        rmoveto
        183 vlineto
        -1003 -432 rlineto
        -103 vlineto
        1003 -432 rlineto
        183 vlineto
        -744 300 rlineto
        return
      </CharString>
      <CharString index="113">
        -1 callsubr
        52 callsubr
        return
      </CharString>
      <CharString index="114">
        66 21 callsubr
        893 155 -16 -20 return
      </CharString>
      <CharString index="115">
        59 186 hvcurveto
        return
      </CharString>
      <CharString index="116">
        238 -16 178 1057 183 return
      </CharString>
      <CharString index="117">
        194 316 44 678 160 return
      </CharString>
      <CharString index="118">
        116 39 65 153 29 51 48 callgsubr
        return
      </CharString>
      <CharString index="119">
        -7 callsubr
        398 -21 return
      </CharString>
      <CharString index="120">
        152 528 152 return
      </CharString>
      <CharString index="121">
        186 1043 183 return
      </CharString>
      <CharString index="122">
        1216 return
      </CharString>
      <CharString index="123">
        -1128 endchar
      </CharString>
      <CharString index="124">
        575 -15 59 callgsubr
        232 159 -153 153 return
      </CharString>
      <CharString index="125">
        rmoveto
        -206 hlineto
        26 -542 rlineto
        154 hlineto
        return
      </CharString>
      <CharString index="126">
        -77 callsubr
        181 14 callsubr
        return
      </CharString>
      <CharString index="127">
        hstem
        -63 callsubr
        return
      </CharString>
      <CharString index="128">
        154 -74 callsubr
        rmoveto
        -57 callgsubr
        796 176 -596 15 callgsubr
        vlineto
        return
      </CharString>
      <CharString index="129">
        66 71 callgsubr
        return
      </CharString>
      <CharString index="130">
        749 -45 callsubr
        69 callgsubr
        return
      </CharString>
      <CharString index="131">
        -21 876 172 return
      </CharString>
      <CharString index="132">
        56 callgsubr
        70 247 218 247 hintmask 00000000
        hintmask 11100000
        656 return
      </CharString>
      <CharString index="133">
        -13 callgsubr
        201 -5 callsubr
        88 208 return
      </CharString>
      <CharString index="134">
        -51 callsubr
        endchar
      </CharString>
      <CharString index="135">
        282 154 return
      </CharString>
      <CharString index="136">
        169 151 return
      </CharString>
      <CharString index="137">
        -617 36 callsubr
        165 180 vstem
        345 return
      </CharString>
      <CharString index="138">
        -340 rmoveto
        return
      </CharString>
      <CharString index="139">
        -446 1553 422 hstem
        16 648 vstem
        340 return
      </CharString>
      <CharString index="140">
        -509 138 152 128 return
      </CharString>
      <CharString index="141">
        238 21 -21 666 176 return
      </CharString>
      <CharString index="142">
        1051 hmoveto
        564 vlineto
        351 return
      </CharString>
      <CharString index="143">
        21 24 callgsubr
        return
      </CharString>
      <CharString index="144">
        6 -29 -44 2 -29 hhcurveto
        return
      </CharString>
      <CharString index="145">
        161 14 callsubr
        return
      </CharString>
      <CharString index="146">
        238 0 160 return
      </CharString>
      <CharString index="147">
        1032 rmoveto
        return
      </CharString>
      <CharString index="148">
        -8 143 rlineto
        -192 -8 callsubr
        722 hlineto
        return
      </CharString>
      <CharString index="149">
        -104 -10 186 -160 -21 1220 177 return
      </CharString>
      <CharString index="150">
        54 callsubr
        162 hlineto
        64 340 rlineto
        return
      </CharString>
      <CharString index="151">
        27 callsubr
        380 -21 return
      </CharString>
      <CharString index="152">
        254 hstem
        47 callsubr
        return
      </CharString>
      <CharString index="153">
        155 200 return
      </CharString>
      <CharString index="154">
        148 199 return
      </CharString>
      <CharString index="155">
        -5 -7 24 vhcurveto
        return
      </CharString>
      <CharString index="156">
        154 hstemhm
        return
      </CharString>
      <CharString index="157">
        0 176 return
      </CharString>
      <CharString index="158">
        195 88 -26 -94 -79 -91 -42 -149 hvcurveto
        return
      </CharString>
      <CharString index="159">
        0 152 481 152 455 152 return
      </CharString>
      <CharString index="160">
        82 186 83 hvcurveto
        return
      </CharString>
      <CharString index="161">
        hstemhm
        132 208 return
      </CharString>
      <CharString index="162">
        hstemhm
        129 208 return
      </CharString>
      <CharString index="163">
        224 hstemhm
        return
      </CharString>
      <CharString index="164">
        -234 hlineto
        return
      </CharString>
      <CharString index="165">
        199 endchar
      </CharString>
      <CharString index="166">
        154 -154 -24 callgsubr
        return
      </CharString>
      <CharString index="167">
        -106 -16 164 739 161 -10 -20 return
      </CharString>
      <CharString index="168">
        -616 0 callgsubr
        return
      </CharString>
      <CharString index="169">
        hstem
        46 callgsubr
        496 24 callsubr
        return
      </CharString>
      <CharString index="170">
        rmoveto
        -680 -154 680 hlineto
        endchar
      </CharString>
      <CharString index="171">
        160 562 160 return
      </CharString>
      <CharString index="172">
        152 1342 -20 return
      </CharString>
      <CharString index="173">
        112 313 112 return
      </CharString>
      <CharString index="174">
        1254 367 hstem
        return
      </CharString>
      <CharString index="175">
        -31 callgsubr
        hstem
        return
      </CharString>
      <CharString index="176">
        2 1872 return
      </CharString>
      <CharString index="177">
        152 hstem
        return
      </CharString>
      <CharString index="178">
        -16 154 return
      </CharString>
      <CharString index="179">
        -4 -4 20 hvcurveto
        -615 vlineto
        -47 -25 return
      </CharString>
      <CharString index="180">
        -21 640 -44 callsubr
        return
      </CharString>
      <CharString index="181">
        -3 -16 hhcurveto
        return
      </CharString>
      <CharString index="182">
        -1564 176 1564 return
      </CharString>
      <CharString index="183">
        -274 -144 137 686 return
      </CharString>
      <CharString index="184">
        154 -8 -20 hstemhm
        return
      </CharString>
      <CharString index="185">
        66 170 0 97 return
      </CharString>
      <CharString index="186">
        -134 hhcurveto
        -295 return
      </CharString>
      <CharString index="187">
        hintmask 0000000000000000
        return
      </CharString>
      <CharString index="188">
        92 208 return
      </CharString>
      <CharString index="189">
        193 endchar
      </CharString>
</ttFont>
